;TYPE=PLATED
;Layer: PTH_Through
;EasyEDA Pro v2.2.46.11, 2026-03-21 17:54:08
;Gerber Generator version 0.3
M48
METRIC,LZ,0000.00000
;Hole size 1 = 0.90000 METRIC
T01C0.90000
;Hole size 2 = 0.90002 METRIC
T02C0.90002
;Hole size 3 = 1.30002 METRIC
T03C1.30002
%
G05
G90
T01
X73.66Y77.597
X79.502Y84.836
X73.66Y74.422
X80.01Y74.549
X171.3865Y74.2315
X171.3865Y77.4065
X177.2285Y84.6455
X177.7365Y74.3585
X75.2475Y-23.8125
X75.2475Y-20.6375
X81.0895Y-13.3985
X81.5975Y-23.6855
X170.7515Y-25.0825
X170.7515Y-21.9075
X176.5935Y-14.6685
X177.1015Y-24.9555
X69.215Y102.235
X69.215Y99.695
X69.215Y97.155
X69.215Y94.615
X69.215Y92.075
X69.215Y89.535
X68.707Y80.264
X68.707Y77.724
X68.707Y75.184
X68.707Y72.644
X68.707Y70.104
X68.707Y67.564
X68.707Y65.024
X68.707Y62.484
X68.707Y45.339
X68.707Y47.879
X68.707Y50.419
X68.707Y52.959
X18.923Y76.581
X18.923Y79.121
X18.923Y81.661
X18.923Y84.201
X63.246Y98.59505
X63.246Y88.09505
X33.655Y41.783
X33.655Y36.703
X46.01401Y38.989
X51.014Y38.989
X23.522Y53.88813
X23.522Y58.88812
X29.972Y102.362
X29.972Y99.822
X29.972Y97.282
X29.972Y94.742
X29.972Y92.202
X29.972Y89.662
X29.972Y87.122
X29.972Y84.582
X29.972Y82.042
X29.972Y79.502
X29.972Y76.962
X29.972Y74.422
X29.972Y71.882
X29.972Y69.342
X29.972Y66.802
X29.972Y64.262
X29.972Y61.722
X29.972Y59.182
X29.972Y56.642
X29.972Y54.102
X29.972Y51.562
X29.972Y49.022
X56.896Y102.362
X56.896Y99.822
X56.896Y97.282
X56.896Y94.742
X56.896Y92.202
X56.896Y89.662
X56.896Y87.122
X56.896Y84.582
X56.896Y82.042
X56.896Y79.502
X56.896Y76.962
X56.896Y74.422
X56.896Y71.882
X56.896Y69.342
X56.896Y66.802
X56.896Y64.262
X56.896Y61.722
X56.896Y59.182
X56.896Y56.642
X56.896Y54.102
X56.896Y51.562
X56.896Y49.022
X121.2485Y53.69763
X121.2485Y58.69762
X116.6495Y76.3905
X116.6495Y78.9305
X116.6495Y81.4705
X116.6495Y84.0105
X127.6985Y102.1715
X127.6985Y99.6315
X127.6985Y97.0915
X127.6985Y94.5515
X127.6985Y92.0115
X127.6985Y89.4715
X127.6985Y86.9315
X127.6985Y84.3915
X127.6985Y81.8515
X127.6985Y79.3115
X127.6985Y76.7715
X127.6985Y74.2315
X127.6985Y71.6915
X127.6985Y69.1515
X127.6985Y66.6115
X127.6985Y64.0715
X127.6985Y61.5315
X127.6985Y58.9915
X127.6985Y56.4515
X127.6985Y53.9115
X127.6985Y51.3715
X127.6985Y48.8315
X131.3815Y41.5925
X131.3815Y36.5125
X143.74051Y38.7985
X148.74049Y38.7985
X154.6225Y102.1715
X154.6225Y99.6315
X154.6225Y97.0915
X154.6225Y94.5515
X154.6225Y92.0115
X154.6225Y89.4715
X154.6225Y86.9315
X154.6225Y84.3915
X154.6225Y81.8515
X154.6225Y79.3115
X154.6225Y76.7715
X154.6225Y74.2315
X154.6225Y71.6915
X154.6225Y69.1515
X154.6225Y66.6115
X154.6225Y64.0715
X154.6225Y61.5315
X154.6225Y58.9915
X154.6225Y56.4515
X154.6225Y53.9115
X154.6225Y51.3715
X154.6225Y48.8315
X160.9725Y98.40455
X160.9725Y87.90455
X166.4335Y80.0735
X166.4335Y77.5335
X166.4335Y74.9935
X166.4335Y72.4535
X166.4335Y69.9135
X166.4335Y67.3735
X166.4335Y64.8335
X166.4335Y62.2935
X166.4335Y45.1485
X166.4335Y47.6885
X166.4335Y50.2285
X166.4335Y52.7685
X166.9415Y102.0445
X166.9415Y99.5045
X166.9415Y96.9645
X166.9415Y94.4245
X166.9415Y91.8845
X166.9415Y89.3445
X25.1095Y-44.34637
X25.1095Y-39.34638
X20.5105Y-21.6535
X20.5105Y-19.1135
X20.5105Y-16.5735
X20.5105Y-14.0335
X31.5595Y4.1275
X31.5595Y1.5875
X31.5595Y-0.9525
X31.5595Y-3.4925
X31.5595Y-6.0325
X31.5595Y-8.5725
X31.5595Y-11.1125
X31.5595Y-13.6525
X31.5595Y-16.1925
X31.5595Y-18.7325
X31.5595Y-21.2725
X31.5595Y-23.8125
X31.5595Y-26.3525
X31.5595Y-28.8925
X31.5595Y-31.4325
X31.5595Y-33.9725
X31.5595Y-36.5125
X31.5595Y-39.0525
X31.5595Y-41.5925
X31.5595Y-44.1325
X31.5595Y-46.6725
X31.5595Y-49.2125
X35.2425Y-56.4515
X35.2425Y-61.5315
X47.60151Y-59.2455
X52.6015Y-59.2455
X58.4835Y4.1275
X58.4835Y1.5875
X58.4835Y-0.9525
X58.4835Y-3.4925
X58.4835Y-6.0325
X58.4835Y-8.5725
X58.4835Y-11.1125
X58.4835Y-13.6525
X58.4835Y-16.1925
X58.4835Y-18.7325
X58.4835Y-21.2725
X58.4835Y-23.8125
X58.4835Y-26.3525
X58.4835Y-28.8925
X58.4835Y-31.4325
X58.4835Y-33.9725
X58.4835Y-36.5125
X58.4835Y-39.0525
X58.4835Y-41.5925
X58.4835Y-44.1325
X58.4835Y-46.6725
X58.4835Y-49.2125
X64.8335Y0.36055
X64.8335Y-10.13945
X70.2945Y-17.9705
X70.2945Y-20.5105
X70.2945Y-23.0505
X70.2945Y-25.5905
X70.2945Y-28.1305
X70.2945Y-30.6705
X70.2945Y-33.2105
X70.2945Y-35.7505
X70.2945Y-52.8955
X70.2945Y-50.3555
X70.2945Y-47.8155
X70.2945Y-45.2755
X70.8025Y4.0005
X70.8025Y1.4605
X70.8025Y-1.0795
X70.8025Y-3.6195
X70.8025Y-6.1595
X70.8025Y-8.6995
X120.6135Y-45.61637
X120.6135Y-40.61638
X116.0145Y-22.9235
X116.0145Y-20.3835
X116.0145Y-17.8435
X116.0145Y-15.3035
X127.0635Y2.8575
X127.0635Y0.3175
X127.0635Y-2.2225
X127.0635Y-4.7625
X127.0635Y-7.3025
X127.0635Y-9.8425
X127.0635Y-12.3825
X127.0635Y-14.9225
X127.0635Y-17.4625
X127.0635Y-20.0025
X127.0635Y-22.5425
X127.0635Y-25.0825
X127.0635Y-27.6225
X127.0635Y-30.1625
X127.0635Y-32.7025
X127.0635Y-35.2425
X127.0635Y-37.7825
X127.0635Y-40.3225
X127.0635Y-42.8625
X127.0635Y-45.4025
X127.0635Y-47.9425
X127.0635Y-50.4825
X130.7465Y-57.7215
X130.7465Y-62.8015
X143.10551Y-60.5155
X148.10549Y-60.5155
X153.9875Y2.8575
X153.9875Y0.3175
X153.9875Y-2.2225
X153.9875Y-4.7625
X153.9875Y-7.3025
X153.9875Y-9.8425
X153.9875Y-12.3825
X153.9875Y-14.9225
X153.9875Y-17.4625
X153.9875Y-20.0025
X153.9875Y-22.5425
X153.9875Y-25.0825
X153.9875Y-27.6225
X153.9875Y-30.1625
X153.9875Y-32.7025
X153.9875Y-35.2425
X153.9875Y-37.7825
X153.9875Y-40.3225
X153.9875Y-42.8625
X153.9875Y-45.4025
X153.9875Y-47.9425
X153.9875Y-50.4825
X160.3375Y-0.90945
X160.3375Y-11.40945
X165.7985Y-19.2405
X165.7985Y-21.7805
X165.7985Y-24.3205
X165.7985Y-26.8605
X165.7985Y-29.4005
X165.7985Y-31.9405
X165.7985Y-34.4805
X165.7985Y-37.0205
X165.7985Y-54.1655
X165.7985Y-51.6255
X165.7985Y-49.0855
X165.7985Y-46.5455
X166.3065Y2.7305
X166.3065Y0.1905
X166.3065Y-2.3495
X166.3065Y-4.8895
X166.3065Y-7.4295
X166.3065Y-9.9695
T02
X75.311Y108.69201
X75.311Y106.19199
X173.0375Y108.50151
X173.0375Y106.00149
X76.8985Y10.45751
X76.8985Y7.95749
X172.4025Y9.18751
X172.4025Y6.68749
T03
X11.022Y53.88813
X11.022Y58.88812
X108.7485Y53.69763
X108.7485Y58.69762
X12.6095Y-44.34637
X12.6095Y-39.34638
X108.1135Y-45.61637
X108.1135Y-40.61638
M30