G04 Layer: TopSilkscreenLayer*
G04 EasyEDA Pro v2.2.46.11, 2026-03-21 17:54:08*
G04 Gerber Generator version 0.3*
G04 Scale: 100 percent, Rotated: No, Reflected: No*
G04 Dimensions in millimeters*
G04 Leading zeros omitted, absolute positions, 4 integers and 5 decimals*
G04 Generated by one-click*
%FSLAX45Y45*%
%MOMM*%
%ADD10C,0.2032*%
%ADD11C,0.1524*%
%ADD12C,0.254*%
%ADD13C,0.8287*%
G75*


G04 Text Start*
G54D10*
G01X7392162Y10855960D02*
G01X7392162Y10900664D01*
G01X7357110Y10573512D02*
G01X7401814Y10573512D01*
G01X7379462Y10551160D02*
G01X7379462Y10595864D01*
G54D11*
G01X7111949Y10470591D02*
G01X7105599Y10467543D01*
G01X7099503Y10461193D01*
G01X7096455Y10455097D01*
G01X7096455Y10442651D01*
G01X7099503Y10436555D01*
G01X7105599Y10430205D01*
G01X7111949Y10427157D01*
G01X7121093Y10424109D01*
G01X7136587Y10424109D01*
G01X7145985Y10427157D01*
G01X7152081Y10430205D01*
G01X7158431Y10436555D01*
G01X7161479Y10442651D01*
G01X7161479Y10455097D01*
G01X7158431Y10461193D01*
G01X7152081Y10467543D01*
G01X7145985Y10470591D01*
G01X7108901Y10500817D02*
G01X7105599Y10506913D01*
G01X7096455Y10516057D01*
G01X7161479Y10516057D01*
G01X6676868Y8796421D02*
G01X6741892Y8796421D01*
G01X6676868Y8796421D02*
G01X6676868Y8818011D01*
G01X6679916Y8827409D01*
G01X6686012Y8833505D01*
G01X6692362Y8836553D01*
G01X6701506Y8839855D01*
G01X6717000Y8839855D01*
G01X6726398Y8836553D01*
G01X6732494Y8833505D01*
G01X6738844Y8827409D01*
G01X6741892Y8818011D01*
G01X6741892Y8796421D01*
G01X6698458Y8870081D02*
G01X6729446Y8870081D01*
G01X6738844Y8873129D01*
G01X6741892Y8879225D01*
G01X6741892Y8888623D01*
G01X6738844Y8894719D01*
G01X6729446Y8904117D01*
G01X6698458Y8904117D02*
G01X6741892Y8904117D01*
G01X6707856Y8968379D02*
G01X6701506Y8965077D01*
G01X6698458Y8955933D01*
G01X6698458Y8946535D01*
G01X6701506Y8937391D01*
G01X6707856Y8934343D01*
G01X6713952Y8937391D01*
G01X6717000Y8943487D01*
G01X6720048Y8958981D01*
G01X6723350Y8965077D01*
G01X6729446Y8968379D01*
G01X6732494Y8968379D01*
G01X6738844Y8965077D01*
G01X6741892Y8955933D01*
G01X6741892Y8946535D01*
G01X6738844Y8937391D01*
G01X6732494Y8934343D01*
G01X6676868Y9007749D02*
G01X6729446Y9007749D01*
G01X6738844Y9010797D01*
G01X6741892Y9017147D01*
G01X6741892Y9023243D01*
G01X6698458Y8998605D02*
G01X6698458Y9020195D01*
G01X6686012Y9096649D02*
G01X6679916Y9090553D01*
G01X6676868Y9081155D01*
G01X6676868Y9068709D01*
G01X6679916Y9059565D01*
G01X6686012Y9053469D01*
G01X6692362Y9053469D01*
G01X6698458Y9056517D01*
G01X6701506Y9059565D01*
G01X6704554Y9065661D01*
G01X6710904Y9084203D01*
G01X6713952Y9090553D01*
G01X6717000Y9093601D01*
G01X6723350Y9096649D01*
G01X6732494Y9096649D01*
G01X6738844Y9090553D01*
G01X6741892Y9081155D01*
G01X6741892Y9068709D01*
G01X6738844Y9059565D01*
G01X6732494Y9053469D01*
G01X6717000Y9126875D02*
G01X6717000Y9163959D01*
G01X6710904Y9163959D01*
G01X6704554Y9160911D01*
G01X6701506Y9157609D01*
G01X6698458Y9151513D01*
G01X6698458Y9142115D01*
G01X6701506Y9136019D01*
G01X6707856Y9129923D01*
G01X6717000Y9126875D01*
G01X6723350Y9126875D01*
G01X6732494Y9129923D01*
G01X6738844Y9136019D01*
G01X6741892Y9142115D01*
G01X6741892Y9151513D01*
G01X6738844Y9157609D01*
G01X6732494Y9163959D01*
G01X6698458Y9194185D02*
G01X6741892Y9194185D01*
G01X6710904Y9194185D02*
G01X6701506Y9203329D01*
G01X6698458Y9209425D01*
G01X6698458Y9218823D01*
G01X6701506Y9224919D01*
G01X6710904Y9228221D01*
G01X6741892Y9228221D01*
G01X6707856Y9292483D02*
G01X6701506Y9289181D01*
G01X6698458Y9280037D01*
G01X6698458Y9270639D01*
G01X6701506Y9261495D01*
G01X6707856Y9258447D01*
G01X6713952Y9261495D01*
G01X6717000Y9267591D01*
G01X6720048Y9283085D01*
G01X6723350Y9289181D01*
G01X6729446Y9292483D01*
G01X6732494Y9292483D01*
G01X6738844Y9289181D01*
G01X6741892Y9280037D01*
G01X6741892Y9270639D01*
G01X6738844Y9261495D01*
G01X6732494Y9258447D01*
G01X6698458Y9337949D02*
G01X6701506Y9331853D01*
G01X6707856Y9325757D01*
G01X6717000Y9322709D01*
G01X6723350Y9322709D01*
G01X6732494Y9325757D01*
G01X6738844Y9331853D01*
G01X6741892Y9337949D01*
G01X6741892Y9347347D01*
G01X6738844Y9353443D01*
G01X6732494Y9359793D01*
G01X6723350Y9362841D01*
G01X6717000Y9362841D01*
G01X6707856Y9359793D01*
G01X6701506Y9353443D01*
G01X6698458Y9347347D01*
G01X6698458Y9337949D01*
G01X6698458Y9393067D02*
G01X6741892Y9393067D01*
G01X6717000Y9393067D02*
G01X6707856Y9396115D01*
G01X6701506Y9402211D01*
G01X6698458Y9408307D01*
G01X6698458Y9417705D01*
G01X7115332Y8183479D02*
G01X7050308Y8183479D01*
G01X7115332Y8183479D02*
G01X7115332Y8143347D01*
G01X7084344Y8183479D02*
G01X7084344Y8158587D01*
G01X7050308Y8183479D02*
G01X7050308Y8143347D01*
G01X7115332Y8113121D02*
G01X7050308Y8113121D01*
G01X7115332Y8113121D02*
G01X7050308Y8069941D01*
G01X7115332Y8069941D02*
G01X7050308Y8069941D01*
G01X7106188Y7996535D02*
G01X7112284Y8002631D01*
G01X7115332Y8012029D01*
G01X7115332Y8024475D01*
G01X7112284Y8033619D01*
G01X7106188Y8039715D01*
G01X7099838Y8039715D01*
G01X7093742Y8036667D01*
G01X7090694Y8033619D01*
G01X7087646Y8027523D01*
G01X7081296Y8008981D01*
G01X7078248Y8002631D01*
G01X7075200Y7999583D01*
G01X7068850Y7996535D01*
G01X7059706Y7996535D01*
G01X7053356Y8002631D01*
G01X7050308Y8012029D01*
G01X7050308Y8024475D01*
G01X7053356Y8033619D01*
G01X7059706Y8039715D01*
G01X7102886Y7966309D02*
G01X7106188Y7960213D01*
G01X7115332Y7951069D01*
G01X7050308Y7951069D01*
G01X7106188Y7883759D02*
G01X7112284Y7886807D01*
G01X7115332Y7896205D01*
G01X7115332Y7902301D01*
G01X7112284Y7911699D01*
G01X7102886Y7917795D01*
G01X7087646Y7920843D01*
G01X7072152Y7920843D01*
G01X7059706Y7917795D01*
G01X7053356Y7911699D01*
G01X7050308Y7902301D01*
G01X7050308Y7899253D01*
G01X7053356Y7890109D01*
G01X7059706Y7883759D01*
G01X7068850Y7880711D01*
G01X7072152Y7880711D01*
G01X7081296Y7883759D01*
G01X7087646Y7890109D01*
G01X7090694Y7899253D01*
G01X7090694Y7902301D01*
G01X7087646Y7911699D01*
G01X7081296Y7917795D01*
G01X7072152Y7920843D01*
G01X7115332Y7831943D02*
G01X7112284Y7841341D01*
G01X7102886Y7847437D01*
G01X7087646Y7850485D01*
G01X7078248Y7850485D01*
G01X7062754Y7847437D01*
G01X7053356Y7841341D01*
G01X7050308Y7831943D01*
G01X7050308Y7825847D01*
G01X7053356Y7816449D01*
G01X7062754Y7810353D01*
G01X7078248Y7807305D01*
G01X7087646Y7807305D01*
G01X7102886Y7810353D01*
G01X7112284Y7816449D01*
G01X7115332Y7825847D01*
G01X7115332Y7831943D01*
G01X7106188Y7749393D02*
G01X7050308Y7749393D01*
G01X7078248Y7777079D02*
G01X7078248Y7721453D01*
G01X7115332Y7666589D02*
G01X7050308Y7691227D01*
G01X7115332Y7666589D02*
G01X7050308Y7641697D01*
G01X7072152Y7682083D02*
G01X7072152Y7651095D01*
G01X7115332Y7589881D02*
G01X7050308Y7589881D01*
G01X7115332Y7611471D02*
G01X7115332Y7568291D01*
G01X7115332Y7538065D02*
G01X7050308Y7538065D01*
G01X7115332Y7494885D02*
G01X7050308Y7494885D01*
G01X7084344Y7538065D02*
G01X7084344Y7494885D01*
G01X7099838Y7461611D02*
G01X7102886Y7461611D01*
G01X7109236Y7458563D01*
G01X7112284Y7455515D01*
G01X7115332Y7449419D01*
G01X7115332Y7436973D01*
G01X7112284Y7430623D01*
G01X7109236Y7427575D01*
G01X7102886Y7424527D01*
G01X7096790Y7424527D01*
G01X7090694Y7427575D01*
G01X7081296Y7433925D01*
G01X7050308Y7464659D01*
G01X7050308Y7421479D01*
G01X7102886Y7391253D02*
G01X7106188Y7385157D01*
G01X7115332Y7376013D01*
G01X7050308Y7376013D01*
G01X6624066Y4380819D02*
G01X6689090Y4380819D01*
G01X6689090Y4380819D02*
G01X6689090Y4417903D01*
G01X6639560Y4494357D02*
G01X6633210Y4491309D01*
G01X6627114Y4485213D01*
G01X6624066Y4478863D01*
G01X6624066Y4466671D01*
G01X6627114Y4460321D01*
G01X6633210Y4454225D01*
G01X6639560Y4451177D01*
G01X6648704Y4448129D01*
G01X6664198Y4448129D01*
G01X6673596Y4451177D01*
G01X6679692Y4454225D01*
G01X6686042Y4460321D01*
G01X6689090Y4466671D01*
G01X6689090Y4478863D01*
G01X6686042Y4485213D01*
G01X6679692Y4491309D01*
G01X6673596Y4494357D01*
G01X6624066Y4524583D02*
G01X6689090Y4524583D01*
G01X6624066Y4524583D02*
G01X6624066Y4546173D01*
G01X6627114Y4555317D01*
G01X6633210Y4561667D01*
G01X6639560Y4564715D01*
G01X6648704Y4567763D01*
G01X6664198Y4567763D01*
G01X6673596Y4564715D01*
G01X6679692Y4561667D01*
G01X6686042Y4555317D01*
G01X6689090Y4546173D01*
G01X6689090Y4524583D01*
G01X6636512Y4597989D02*
G01X6633210Y4604085D01*
G01X6624066Y4613229D01*
G01X6689090Y4613229D01*
G01X1645666Y7505019D02*
G01X1710690Y7505019D01*
G01X1645666Y7505019D02*
G01X1710690Y7529911D01*
G01X1645666Y7554549D02*
G01X1710690Y7529911D01*
G01X1645666Y7554549D02*
G01X1710690Y7554549D01*
G01X1645666Y7603317D02*
G01X1648714Y7596967D01*
G01X1654810Y7590871D01*
G01X1661160Y7587823D01*
G01X1670304Y7584775D01*
G01X1685798Y7584775D01*
G01X1695196Y7587823D01*
G01X1701292Y7590871D01*
G01X1707642Y7596967D01*
G01X1710690Y7603317D01*
G01X1710690Y7615509D01*
G01X1707642Y7621859D01*
G01X1701292Y7627955D01*
G01X1695196Y7631003D01*
G01X1685798Y7634305D01*
G01X1670304Y7634305D01*
G01X1661160Y7631003D01*
G01X1654810Y7627955D01*
G01X1648714Y7621859D01*
G01X1645666Y7615509D01*
G01X1645666Y7603317D01*
G01X1698244Y7612461D02*
G01X1716786Y7631003D01*
G01X1658112Y7664531D02*
G01X1654810Y7670627D01*
G01X1645666Y7679771D01*
G01X1710690Y7679771D01*
G01X1645666Y7716093D02*
G01X1645666Y7750129D01*
G01X1670304Y7731587D01*
G01X1670304Y7740731D01*
G01X1673352Y7747081D01*
G01X1676654Y7750129D01*
G01X1685798Y7753177D01*
G01X1692148Y7753177D01*
G01X1701292Y7750129D01*
G01X1707642Y7744033D01*
G01X1710690Y7734635D01*
G01X1710690Y7725237D01*
G01X1707642Y7716093D01*
G01X1704340Y7713045D01*
G01X1698244Y7709997D01*
G01X1645666Y7820487D02*
G01X1645666Y7789499D01*
G01X1673352Y7786451D01*
G01X1670304Y7789499D01*
G01X1667256Y7798643D01*
G01X1667256Y7808041D01*
G01X1670304Y7817439D01*
G01X1676654Y7823535D01*
G01X1685798Y7826583D01*
G01X1692148Y7826583D01*
G01X1701292Y7823535D01*
G01X1707642Y7817439D01*
G01X1710690Y7808041D01*
G01X1710690Y7798643D01*
G01X1707642Y7789499D01*
G01X1704340Y7786451D01*
G01X1698244Y7783403D01*
G01X6558534Y9931885D02*
G01X6493510Y9931885D01*
G01X6558534Y9931885D02*
G01X6558534Y9903945D01*
G01X6555486Y9894801D01*
G01X6552438Y9891753D01*
G01X6546088Y9888451D01*
G01X6539992Y9888451D01*
G01X6533896Y9891753D01*
G01X6530848Y9894801D01*
G01X6527546Y9903945D01*
G01X6527546Y9931885D01*
G01X6527546Y9910295D02*
G01X6493510Y9888451D01*
G01X6543040Y9855177D02*
G01X6546088Y9855177D01*
G01X6552438Y9852129D01*
G01X6555486Y9849081D01*
G01X6558534Y9842985D01*
G01X6558534Y9830539D01*
G01X6555486Y9824189D01*
G01X6552438Y9821141D01*
G01X6546088Y9818093D01*
G01X6539992Y9818093D01*
G01X6533896Y9821141D01*
G01X6524498Y9827491D01*
G01X6493510Y9858225D01*
G01X6493510Y9815045D01*
G01X2691003Y3394654D02*
G01X2684907Y3388304D01*
G01X2681859Y3379160D01*
G01X2681859Y3366714D01*
G01X2684907Y3357316D01*
G01X2691003Y3351220D01*
G01X2697353Y3351220D01*
G01X2703449Y3354268D01*
G01X2706497Y3357316D01*
G01X2709545Y3363666D01*
G01X2715895Y3382208D01*
G01X2718943Y3388304D01*
G01X2721991Y3391352D01*
G01X2728341Y3394654D01*
G01X2737485Y3394654D01*
G01X2743835Y3388304D01*
G01X2746883Y3379160D01*
G01X2746883Y3366714D01*
G01X2743835Y3357316D01*
G01X2737485Y3351220D01*
G01X2712847Y3461964D02*
G01X2706497Y3455614D01*
G01X2703449Y3449518D01*
G01X2703449Y3440120D01*
G01X2706497Y3434024D01*
G01X2712847Y3427928D01*
G01X2721991Y3424880D01*
G01X2728341Y3424880D01*
G01X2737485Y3427928D01*
G01X2743835Y3434024D01*
G01X2746883Y3440120D01*
G01X2746883Y3449518D01*
G01X2743835Y3455614D01*
G01X2737485Y3461964D01*
G01X2703449Y3492190D02*
G01X2746883Y3492190D01*
G01X2721991Y3492190D02*
G01X2712847Y3495238D01*
G01X2706497Y3501334D01*
G01X2703449Y3507430D01*
G01X2703449Y3516828D01*
G01X2721991Y3547054D02*
G01X2721991Y3584138D01*
G01X2715895Y3584138D01*
G01X2709545Y3581090D01*
G01X2706497Y3577788D01*
G01X2703449Y3571692D01*
G01X2703449Y3562294D01*
G01X2706497Y3556198D01*
G01X2712847Y3550102D01*
G01X2721991Y3547054D01*
G01X2728341Y3547054D01*
G01X2737485Y3550102D01*
G01X2743835Y3556198D01*
G01X2746883Y3562294D01*
G01X2746883Y3571692D01*
G01X2743835Y3577788D01*
G01X2737485Y3584138D01*
G01X2703449Y3614364D02*
G01X2746883Y3626556D01*
G01X2703449Y3639002D02*
G01X2746883Y3626556D01*
G01X2703449Y3639002D02*
G01X2746883Y3651448D01*
G01X2703449Y3663894D02*
G01X2746883Y3651448D01*
G01X2681859Y3715710D02*
G01X2746883Y3715710D01*
G01X2681859Y3694120D02*
G01X2681859Y3737300D01*
G01X2721991Y3767526D02*
G01X2721991Y3804610D01*
G01X2715895Y3804610D01*
G01X2709545Y3801562D01*
G01X2706497Y3798260D01*
G01X2703449Y3792164D01*
G01X2703449Y3782766D01*
G01X2706497Y3776670D01*
G01X2712847Y3770574D01*
G01X2721991Y3767526D01*
G01X2728341Y3767526D01*
G01X2737485Y3770574D01*
G01X2743835Y3776670D01*
G01X2746883Y3782766D01*
G01X2746883Y3792164D01*
G01X2743835Y3798260D01*
G01X2737485Y3804610D01*
G01X2703449Y3834836D02*
G01X2746883Y3834836D01*
G01X2721991Y3834836D02*
G01X2712847Y3837884D01*
G01X2706497Y3843980D01*
G01X2703449Y3850076D01*
G01X2703449Y3859474D01*
G01X2703449Y3889700D02*
G01X2746883Y3889700D01*
G01X2715895Y3889700D02*
G01X2706497Y3898844D01*
G01X2703449Y3904940D01*
G01X2703449Y3914338D01*
G01X2706497Y3920434D01*
G01X2715895Y3923736D01*
G01X2746883Y3923736D01*
G01X2715895Y3923736D02*
G01X2706497Y3932880D01*
G01X2703449Y3939230D01*
G01X2703449Y3948374D01*
G01X2706497Y3954470D01*
G01X2715895Y3957772D01*
G01X2746883Y3957772D01*
G01X2681859Y3987998D02*
G01X2684907Y3991046D01*
G01X2681859Y3994094D01*
G01X2678811Y3991046D01*
G01X2681859Y3987998D01*
G01X2703449Y3991046D02*
G01X2746883Y3991046D01*
G01X2703449Y4024320D02*
G01X2746883Y4024320D01*
G01X2715895Y4024320D02*
G01X2706497Y4033464D01*
G01X2703449Y4039560D01*
G01X2703449Y4048958D01*
G01X2706497Y4055054D01*
G01X2715895Y4058356D01*
G01X2746883Y4058356D01*
G01X2703449Y4125666D02*
G01X2746883Y4125666D01*
G01X2712847Y4125666D02*
G01X2706497Y4119316D01*
G01X2703449Y4113220D01*
G01X2703449Y4103822D01*
G01X2706497Y4097726D01*
G01X2712847Y4091630D01*
G01X2721991Y4088582D01*
G01X2728341Y4088582D01*
G01X2737485Y4091630D01*
G01X2743835Y4097726D01*
G01X2746883Y4103822D01*
G01X2746883Y4113220D01*
G01X2743835Y4119316D01*
G01X2737485Y4125666D01*
G01X2681859Y4155892D02*
G01X2746883Y4155892D01*
G01X4389501Y4539643D02*
G01X4383151Y4545739D01*
G01X4374007Y4548787D01*
G01X4361561Y4548787D01*
G01X4352163Y4545739D01*
G01X4346067Y4539643D01*
G01X4346067Y4533293D01*
G01X4349115Y4527197D01*
G01X4352163Y4524149D01*
G01X4358513Y4521101D01*
G01X4377055Y4514751D01*
G01X4383151Y4511703D01*
G01X4386199Y4508655D01*
G01X4389501Y4502305D01*
G01X4389501Y4493161D01*
G01X4383151Y4486811D01*
G01X4374007Y4483763D01*
G01X4361561Y4483763D01*
G01X4352163Y4486811D01*
G01X4346067Y4493161D01*
G01X4419727Y4527197D02*
G01X4431919Y4483763D01*
G01X4444365Y4527197D02*
G01X4431919Y4483763D01*
G01X4444365Y4527197D02*
G01X4456811Y4483763D01*
G01X4469257Y4527197D02*
G01X4456811Y4483763D01*
G01X4499483Y4548787D02*
G01X4502531Y4545739D01*
G01X4505579Y4548787D01*
G01X4502531Y4551835D01*
G01X4499483Y4548787D01*
G01X4502531Y4527197D02*
G01X4502531Y4483763D01*
G01X4544949Y4548787D02*
G01X4544949Y4496209D01*
G01X4547997Y4486811D01*
G01X4554347Y4483763D01*
G01X4560443Y4483763D01*
G01X4535805Y4527197D02*
G01X4557395Y4527197D01*
G01X4627753Y4517799D02*
G01X4621403Y4524149D01*
G01X4615307Y4527197D01*
G01X4605909Y4527197D01*
G01X4599813Y4524149D01*
G01X4593717Y4517799D01*
G01X4590669Y4508655D01*
G01X4590669Y4502305D01*
G01X4593717Y4493161D01*
G01X4599813Y4486811D01*
G01X4605909Y4483763D01*
G01X4615307Y4483763D01*
G01X4621403Y4486811D01*
G01X4627753Y4493161D01*
G01X4657979Y4548787D02*
G01X4657979Y4483763D01*
G01X4657979Y4514751D02*
G01X4667123Y4524149D01*
G01X4673219Y4527197D01*
G01X4682617Y4527197D01*
G01X4688713Y4524149D01*
G01X4692015Y4514751D01*
G01X4692015Y4483763D01*
G01X4722241Y4536341D02*
G01X4728337Y4539643D01*
G01X4737481Y4548787D01*
G01X4737481Y4483763D01*
G01X1053262Y6349556D02*
G01X1046912Y6355652D01*
G01X1037768Y6358700D01*
G01X1025322Y6358700D01*
G01X1015924Y6355652D01*
G01X1009828Y6349556D01*
G01X1009828Y6343206D01*
G01X1012876Y6337110D01*
G01X1015924Y6334062D01*
G01X1022274Y6331014D01*
G01X1040816Y6324664D01*
G01X1046912Y6321616D01*
G01X1049960Y6318568D01*
G01X1053262Y6312218D01*
G01X1053262Y6303074D01*
G01X1046912Y6296724D01*
G01X1037768Y6293676D01*
G01X1025322Y6293676D01*
G01X1015924Y6296724D01*
G01X1009828Y6303074D01*
G01X1083488Y6337110D02*
G01X1095680Y6293676D01*
G01X1108126Y6337110D02*
G01X1095680Y6293676D01*
G01X1108126Y6337110D02*
G01X1120572Y6293676D01*
G01X1133018Y6337110D02*
G01X1120572Y6293676D01*
G01X1163244Y6358700D02*
G01X1166292Y6355652D01*
G01X1169340Y6358700D01*
G01X1166292Y6361748D01*
G01X1163244Y6358700D01*
G01X1166292Y6337110D02*
G01X1166292Y6293676D01*
G01X1208710Y6358700D02*
G01X1208710Y6306122D01*
G01X1211758Y6296724D01*
G01X1218108Y6293676D01*
G01X1224204Y6293676D01*
G01X1199566Y6337110D02*
G01X1221156Y6337110D01*
G01X1291514Y6327712D02*
G01X1285164Y6334062D01*
G01X1279068Y6337110D01*
G01X1269670Y6337110D01*
G01X1263574Y6334062D01*
G01X1257478Y6327712D01*
G01X1254430Y6318568D01*
G01X1254430Y6312218D01*
G01X1257478Y6303074D01*
G01X1263574Y6296724D01*
G01X1269670Y6293676D01*
G01X1279068Y6293676D01*
G01X1285164Y6296724D01*
G01X1291514Y6303074D01*
G01X1321740Y6358700D02*
G01X1321740Y6293676D01*
G01X1321740Y6324664D02*
G01X1330884Y6334062D01*
G01X1336980Y6337110D01*
G01X1346378Y6337110D01*
G01X1352474Y6334062D01*
G01X1355776Y6324664D01*
G01X1355776Y6293676D01*
G01X1389050Y6343206D02*
G01X1389050Y6346254D01*
G01X1392098Y6352604D01*
G01X1395146Y6355652D01*
G01X1401242Y6358700D01*
G01X1413688Y6358700D01*
G01X1420038Y6355652D01*
G01X1423086Y6352604D01*
G01X1426134Y6346254D01*
G01X1426134Y6340158D01*
G01X1423086Y6334062D01*
G01X1416736Y6324664D01*
G01X1386002Y6293676D01*
G01X1429182Y6293676D01*
G01X3241830Y10380279D02*
G01X3195348Y10380279D01*
G01X3186204Y10377231D01*
G01X3179854Y10370881D01*
G01X3176806Y10361737D01*
G01X3176806Y10355387D01*
G01X3179854Y10346243D01*
G01X3186204Y10340147D01*
G01X3195348Y10336845D01*
G01X3241830Y10336845D01*
G01X3229384Y10306619D02*
G01X3232686Y10300523D01*
G01X3241830Y10291379D01*
G01X3176806Y10291379D01*
G01X5934230Y10380279D02*
G01X5887748Y10380279D01*
G01X5878604Y10377231D01*
G01X5872254Y10370881D01*
G01X5869206Y10361737D01*
G01X5869206Y10355387D01*
G01X5872254Y10346243D01*
G01X5878604Y10340147D01*
G01X5887748Y10336845D01*
G01X5934230Y10336845D01*
G01X5918736Y10303571D02*
G01X5921784Y10303571D01*
G01X5928134Y10300523D01*
G01X5931182Y10297475D01*
G01X5934230Y10291379D01*
G01X5934230Y10278933D01*
G01X5931182Y10272583D01*
G01X5928134Y10269535D01*
G01X5921784Y10266487D01*
G01X5915688Y10266487D01*
G01X5909592Y10269535D01*
G01X5900194Y10275885D01*
G01X5869206Y10306619D01*
G01X5869206Y10263439D01*
G01X10825912Y6330506D02*
G01X10819562Y6336602D01*
G01X10810418Y6339650D01*
G01X10797972Y6339650D01*
G01X10788574Y6336602D01*
G01X10782478Y6330506D01*
G01X10782478Y6324156D01*
G01X10785526Y6318060D01*
G01X10788574Y6315012D01*
G01X10794924Y6311964D01*
G01X10813466Y6305614D01*
G01X10819562Y6302566D01*
G01X10822610Y6299518D01*
G01X10825912Y6293168D01*
G01X10825912Y6284024D01*
G01X10819562Y6277674D01*
G01X10810418Y6274626D01*
G01X10797972Y6274626D01*
G01X10788574Y6277674D01*
G01X10782478Y6284024D01*
G01X10856138Y6318060D02*
G01X10868330Y6274626D01*
G01X10880776Y6318060D02*
G01X10868330Y6274626D01*
G01X10880776Y6318060D02*
G01X10893222Y6274626D01*
G01X10905668Y6318060D02*
G01X10893222Y6274626D01*
G01X10935894Y6339650D02*
G01X10938942Y6336602D01*
G01X10941990Y6339650D01*
G01X10938942Y6342698D01*
G01X10935894Y6339650D01*
G01X10938942Y6318060D02*
G01X10938942Y6274626D01*
G01X10981360Y6339650D02*
G01X10981360Y6287072D01*
G01X10984408Y6277674D01*
G01X10990758Y6274626D01*
G01X10996854Y6274626D01*
G01X10972216Y6318060D02*
G01X10993806Y6318060D01*
G01X11064164Y6308662D02*
G01X11057814Y6315012D01*
G01X11051718Y6318060D01*
G01X11042320Y6318060D01*
G01X11036224Y6315012D01*
G01X11030128Y6308662D01*
G01X11027080Y6299518D01*
G01X11027080Y6293168D01*
G01X11030128Y6284024D01*
G01X11036224Y6277674D01*
G01X11042320Y6274626D01*
G01X11051718Y6274626D01*
G01X11057814Y6277674D01*
G01X11064164Y6284024D01*
G01X11094390Y6339650D02*
G01X11094390Y6274626D01*
G01X11094390Y6305614D02*
G01X11103534Y6315012D01*
G01X11109630Y6318060D01*
G01X11119028Y6318060D01*
G01X11125124Y6315012D01*
G01X11128426Y6305614D01*
G01X11128426Y6274626D01*
G01X11161700Y6324156D02*
G01X11161700Y6327204D01*
G01X11164748Y6333554D01*
G01X11167796Y6336602D01*
G01X11173892Y6339650D01*
G01X11186338Y6339650D01*
G01X11192688Y6336602D01*
G01X11195736Y6333554D01*
G01X11198784Y6327204D01*
G01X11198784Y6321108D01*
G01X11195736Y6315012D01*
G01X11189386Y6305614D01*
G01X11158652Y6274626D01*
G01X11201832Y6274626D01*
G01X11418316Y7485969D02*
G01X11483340Y7485969D01*
G01X11418316Y7485969D02*
G01X11483340Y7510861D01*
G01X11418316Y7535499D02*
G01X11483340Y7510861D01*
G01X11418316Y7535499D02*
G01X11483340Y7535499D01*
G01X11418316Y7584267D02*
G01X11421364Y7577917D01*
G01X11427460Y7571821D01*
G01X11433810Y7568773D01*
G01X11442954Y7565725D01*
G01X11458448Y7565725D01*
G01X11467846Y7568773D01*
G01X11473942Y7571821D01*
G01X11480292Y7577917D01*
G01X11483340Y7584267D01*
G01X11483340Y7596459D01*
G01X11480292Y7602809D01*
G01X11473942Y7608905D01*
G01X11467846Y7611953D01*
G01X11458448Y7615255D01*
G01X11442954Y7615255D01*
G01X11433810Y7611953D01*
G01X11427460Y7608905D01*
G01X11421364Y7602809D01*
G01X11418316Y7596459D01*
G01X11418316Y7584267D01*
G01X11470894Y7593411D02*
G01X11489436Y7611953D01*
G01X11430762Y7645481D02*
G01X11427460Y7651577D01*
G01X11418316Y7660721D01*
G01X11483340Y7660721D01*
G01X11418316Y7697043D02*
G01X11418316Y7731079D01*
G01X11442954Y7712537D01*
G01X11442954Y7721681D01*
G01X11446002Y7728031D01*
G01X11449304Y7731079D01*
G01X11458448Y7734127D01*
G01X11464798Y7734127D01*
G01X11473942Y7731079D01*
G01X11480292Y7724983D01*
G01X11483340Y7715585D01*
G01X11483340Y7706187D01*
G01X11480292Y7697043D01*
G01X11476990Y7693995D01*
G01X11470894Y7690947D01*
G01X11418316Y7801437D02*
G01X11418316Y7770449D01*
G01X11446002Y7767401D01*
G01X11442954Y7770449D01*
G01X11439906Y7779593D01*
G01X11439906Y7788991D01*
G01X11442954Y7798389D01*
G01X11449304Y7804485D01*
G01X11458448Y7807533D01*
G01X11464798Y7807533D01*
G01X11473942Y7804485D01*
G01X11480292Y7798389D01*
G01X11483340Y7788991D01*
G01X11483340Y7779593D01*
G01X11480292Y7770449D01*
G01X11476990Y7767401D01*
G01X11470894Y7764353D01*
G01X13014480Y10361229D02*
G01X12967998Y10361229D01*
G01X12958854Y10358181D01*
G01X12952504Y10351831D01*
G01X12949456Y10342687D01*
G01X12949456Y10336337D01*
G01X12952504Y10327193D01*
G01X12958854Y10321097D01*
G01X12967998Y10317795D01*
G01X13014480Y10317795D01*
G01X13002034Y10287569D02*
G01X13005336Y10281473D01*
G01X13014480Y10272329D01*
G01X12949456Y10272329D01*
G01X12463653Y3375604D02*
G01X12457557Y3369254D01*
G01X12454509Y3360110D01*
G01X12454509Y3347664D01*
G01X12457557Y3338266D01*
G01X12463653Y3332170D01*
G01X12470003Y3332170D01*
G01X12476099Y3335218D01*
G01X12479147Y3338266D01*
G01X12482195Y3344616D01*
G01X12488545Y3363158D01*
G01X12491593Y3369254D01*
G01X12494641Y3372302D01*
G01X12500991Y3375604D01*
G01X12510135Y3375604D01*
G01X12516485Y3369254D01*
G01X12519533Y3360110D01*
G01X12519533Y3347664D01*
G01X12516485Y3338266D01*
G01X12510135Y3332170D01*
G01X12485497Y3442914D02*
G01X12479147Y3436564D01*
G01X12476099Y3430468D01*
G01X12476099Y3421070D01*
G01X12479147Y3414974D01*
G01X12485497Y3408878D01*
G01X12494641Y3405830D01*
G01X12500991Y3405830D01*
G01X12510135Y3408878D01*
G01X12516485Y3414974D01*
G01X12519533Y3421070D01*
G01X12519533Y3430468D01*
G01X12516485Y3436564D01*
G01X12510135Y3442914D01*
G01X12476099Y3473140D02*
G01X12519533Y3473140D01*
G01X12494641Y3473140D02*
G01X12485497Y3476188D01*
G01X12479147Y3482284D01*
G01X12476099Y3488380D01*
G01X12476099Y3497778D01*
G01X12494641Y3528004D02*
G01X12494641Y3565088D01*
G01X12488545Y3565088D01*
G01X12482195Y3562040D01*
G01X12479147Y3558738D01*
G01X12476099Y3552642D01*
G01X12476099Y3543244D01*
G01X12479147Y3537148D01*
G01X12485497Y3531052D01*
G01X12494641Y3528004D01*
G01X12500991Y3528004D01*
G01X12510135Y3531052D01*
G01X12516485Y3537148D01*
G01X12519533Y3543244D01*
G01X12519533Y3552642D01*
G01X12516485Y3558738D01*
G01X12510135Y3565088D01*
G01X12476099Y3595314D02*
G01X12519533Y3607506D01*
G01X12476099Y3619952D02*
G01X12519533Y3607506D01*
G01X12476099Y3619952D02*
G01X12519533Y3632398D01*
G01X12476099Y3644844D02*
G01X12519533Y3632398D01*
G01X12454509Y3696660D02*
G01X12519533Y3696660D01*
G01X12454509Y3675070D02*
G01X12454509Y3718250D01*
G01X12494641Y3748476D02*
G01X12494641Y3785560D01*
G01X12488545Y3785560D01*
G01X12482195Y3782512D01*
G01X12479147Y3779210D01*
G01X12476099Y3773114D01*
G01X12476099Y3763716D01*
G01X12479147Y3757620D01*
G01X12485497Y3751524D01*
G01X12494641Y3748476D01*
G01X12500991Y3748476D01*
G01X12510135Y3751524D01*
G01X12516485Y3757620D01*
G01X12519533Y3763716D01*
G01X12519533Y3773114D01*
G01X12516485Y3779210D01*
G01X12510135Y3785560D01*
G01X12476099Y3815786D02*
G01X12519533Y3815786D01*
G01X12494641Y3815786D02*
G01X12485497Y3818834D01*
G01X12479147Y3824930D01*
G01X12476099Y3831026D01*
G01X12476099Y3840424D01*
G01X12476099Y3870650D02*
G01X12519533Y3870650D01*
G01X12488545Y3870650D02*
G01X12479147Y3879794D01*
G01X12476099Y3885890D01*
G01X12476099Y3895288D01*
G01X12479147Y3901384D01*
G01X12488545Y3904686D01*
G01X12519533Y3904686D01*
G01X12488545Y3904686D02*
G01X12479147Y3913830D01*
G01X12476099Y3920180D01*
G01X12476099Y3929324D01*
G01X12479147Y3935420D01*
G01X12488545Y3938722D01*
G01X12519533Y3938722D01*
G01X12454509Y3968948D02*
G01X12457557Y3971996D01*
G01X12454509Y3975044D01*
G01X12451461Y3971996D01*
G01X12454509Y3968948D01*
G01X12476099Y3971996D02*
G01X12519533Y3971996D01*
G01X12476099Y4005270D02*
G01X12519533Y4005270D01*
G01X12488545Y4005270D02*
G01X12479147Y4014414D01*
G01X12476099Y4020510D01*
G01X12476099Y4029908D01*
G01X12479147Y4036004D01*
G01X12488545Y4039306D01*
G01X12519533Y4039306D01*
G01X12476099Y4106616D02*
G01X12519533Y4106616D01*
G01X12485497Y4106616D02*
G01X12479147Y4100266D01*
G01X12476099Y4094170D01*
G01X12476099Y4084772D01*
G01X12479147Y4078676D01*
G01X12485497Y4072580D01*
G01X12494641Y4069532D01*
G01X12500991Y4069532D01*
G01X12510135Y4072580D01*
G01X12516485Y4078676D01*
G01X12519533Y4084772D01*
G01X12519533Y4094170D01*
G01X12516485Y4100266D01*
G01X12510135Y4106616D01*
G01X12454509Y4136842D02*
G01X12519533Y4136842D01*
G01X14162151Y4520593D02*
G01X14155801Y4526689D01*
G01X14146657Y4529737D01*
G01X14134211Y4529737D01*
G01X14124813Y4526689D01*
G01X14118717Y4520593D01*
G01X14118717Y4514243D01*
G01X14121765Y4508147D01*
G01X14124813Y4505099D01*
G01X14131163Y4502051D01*
G01X14149705Y4495701D01*
G01X14155801Y4492653D01*
G01X14158849Y4489605D01*
G01X14162151Y4483255D01*
G01X14162151Y4474111D01*
G01X14155801Y4467761D01*
G01X14146657Y4464713D01*
G01X14134211Y4464713D01*
G01X14124813Y4467761D01*
G01X14118717Y4474111D01*
G01X14192377Y4508147D02*
G01X14204569Y4464713D01*
G01X14217015Y4508147D02*
G01X14204569Y4464713D01*
G01X14217015Y4508147D02*
G01X14229461Y4464713D01*
G01X14241907Y4508147D02*
G01X14229461Y4464713D01*
G01X14272133Y4529737D02*
G01X14275181Y4526689D01*
G01X14278229Y4529737D01*
G01X14275181Y4532785D01*
G01X14272133Y4529737D01*
G01X14275181Y4508147D02*
G01X14275181Y4464713D01*
G01X14317599Y4529737D02*
G01X14317599Y4477159D01*
G01X14320647Y4467761D01*
G01X14326997Y4464713D01*
G01X14333093Y4464713D01*
G01X14308455Y4508147D02*
G01X14330045Y4508147D01*
G01X14400403Y4498749D02*
G01X14394053Y4505099D01*
G01X14387957Y4508147D01*
G01X14378559Y4508147D01*
G01X14372463Y4505099D01*
G01X14366367Y4498749D01*
G01X14363319Y4489605D01*
G01X14363319Y4483255D01*
G01X14366367Y4474111D01*
G01X14372463Y4467761D01*
G01X14378559Y4464713D01*
G01X14387957Y4464713D01*
G01X14394053Y4467761D01*
G01X14400403Y4474111D01*
G01X14430629Y4529737D02*
G01X14430629Y4464713D01*
G01X14430629Y4495701D02*
G01X14439773Y4505099D01*
G01X14445869Y4508147D01*
G01X14455267Y4508147D01*
G01X14461363Y4505099D01*
G01X14464665Y4495701D01*
G01X14464665Y4464713D01*
G01X14494891Y4517291D02*
G01X14500987Y4520593D01*
G01X14510131Y4529737D01*
G01X14510131Y4464713D01*
G01X15706880Y10361229D02*
G01X15660398Y10361229D01*
G01X15651254Y10358181D01*
G01X15644904Y10351831D01*
G01X15641856Y10342687D01*
G01X15641856Y10336337D01*
G01X15644904Y10327193D01*
G01X15651254Y10321097D01*
G01X15660398Y10317795D01*
G01X15706880Y10317795D01*
G01X15691386Y10284521D02*
G01X15694434Y10284521D01*
G01X15700784Y10281473D01*
G01X15703832Y10278425D01*
G01X15706880Y10272329D01*
G01X15706880Y10259883D01*
G01X15703832Y10253533D01*
G01X15700784Y10250485D01*
G01X15694434Y10247437D01*
G01X15688338Y10247437D01*
G01X15682242Y10250485D01*
G01X15672844Y10256835D01*
G01X15641856Y10287569D01*
G01X15641856Y10244389D01*
G01X16331184Y9912835D02*
G01X16266160Y9912835D01*
G01X16331184Y9912835D02*
G01X16331184Y9884895D01*
G01X16328136Y9875751D01*
G01X16325088Y9872703D01*
G01X16318738Y9869401D01*
G01X16312642Y9869401D01*
G01X16306546Y9872703D01*
G01X16303498Y9875751D01*
G01X16300196Y9884895D01*
G01X16300196Y9912835D01*
G01X16300196Y9891245D02*
G01X16266160Y9869401D01*
G01X16315690Y9836127D02*
G01X16318738Y9836127D01*
G01X16325088Y9833079D01*
G01X16328136Y9830031D01*
G01X16331184Y9823935D01*
G01X16331184Y9811489D01*
G01X16328136Y9805139D01*
G01X16325088Y9802091D01*
G01X16318738Y9799043D01*
G01X16312642Y9799043D01*
G01X16306546Y9802091D01*
G01X16297148Y9808441D01*
G01X16266160Y9839175D01*
G01X16266160Y9795995D01*
G01X16887982Y8164429D02*
G01X16822958Y8164429D01*
G01X16887982Y8164429D02*
G01X16887982Y8124297D01*
G01X16856994Y8164429D02*
G01X16856994Y8139537D01*
G01X16822958Y8164429D02*
G01X16822958Y8124297D01*
G01X16887982Y8094071D02*
G01X16822958Y8094071D01*
G01X16887982Y8094071D02*
G01X16822958Y8050891D01*
G01X16887982Y8050891D02*
G01X16822958Y8050891D01*
G01X16878838Y7977485D02*
G01X16884934Y7983581D01*
G01X16887982Y7992979D01*
G01X16887982Y8005425D01*
G01X16884934Y8014569D01*
G01X16878838Y8020665D01*
G01X16872488Y8020665D01*
G01X16866392Y8017617D01*
G01X16863344Y8014569D01*
G01X16860296Y8008473D01*
G01X16853946Y7989931D01*
G01X16850898Y7983581D01*
G01X16847850Y7980533D01*
G01X16841500Y7977485D01*
G01X16832356Y7977485D01*
G01X16826006Y7983581D01*
G01X16822958Y7992979D01*
G01X16822958Y8005425D01*
G01X16826006Y8014569D01*
G01X16832356Y8020665D01*
G01X16875536Y7947259D02*
G01X16878838Y7941163D01*
G01X16887982Y7932019D01*
G01X16822958Y7932019D01*
G01X16878838Y7864709D02*
G01X16884934Y7867757D01*
G01X16887982Y7877155D01*
G01X16887982Y7883251D01*
G01X16884934Y7892649D01*
G01X16875536Y7898745D01*
G01X16860296Y7901793D01*
G01X16844802Y7901793D01*
G01X16832356Y7898745D01*
G01X16826006Y7892649D01*
G01X16822958Y7883251D01*
G01X16822958Y7880203D01*
G01X16826006Y7871059D01*
G01X16832356Y7864709D01*
G01X16841500Y7861661D01*
G01X16844802Y7861661D01*
G01X16853946Y7864709D01*
G01X16860296Y7871059D01*
G01X16863344Y7880203D01*
G01X16863344Y7883251D01*
G01X16860296Y7892649D01*
G01X16853946Y7898745D01*
G01X16844802Y7901793D01*
G01X16887982Y7812893D02*
G01X16884934Y7822291D01*
G01X16875536Y7828387D01*
G01X16860296Y7831435D01*
G01X16850898Y7831435D01*
G01X16835404Y7828387D01*
G01X16826006Y7822291D01*
G01X16822958Y7812893D01*
G01X16822958Y7806797D01*
G01X16826006Y7797399D01*
G01X16835404Y7791303D01*
G01X16850898Y7788255D01*
G01X16860296Y7788255D01*
G01X16875536Y7791303D01*
G01X16884934Y7797399D01*
G01X16887982Y7806797D01*
G01X16887982Y7812893D01*
G01X16878838Y7730343D02*
G01X16822958Y7730343D01*
G01X16850898Y7758029D02*
G01X16850898Y7702403D01*
G01X16887982Y7647539D02*
G01X16822958Y7672177D01*
G01X16887982Y7647539D02*
G01X16822958Y7622647D01*
G01X16844802Y7663033D02*
G01X16844802Y7632045D01*
G01X16887982Y7570831D02*
G01X16822958Y7570831D01*
G01X16887982Y7592421D02*
G01X16887982Y7549241D01*
G01X16887982Y7519015D02*
G01X16822958Y7519015D01*
G01X16887982Y7475835D02*
G01X16822958Y7475835D01*
G01X16856994Y7519015D02*
G01X16856994Y7475835D01*
G01X16872488Y7442561D02*
G01X16875536Y7442561D01*
G01X16881886Y7439513D01*
G01X16884934Y7436465D01*
G01X16887982Y7430369D01*
G01X16887982Y7417923D01*
G01X16884934Y7411573D01*
G01X16881886Y7408525D01*
G01X16875536Y7405477D01*
G01X16869440Y7405477D01*
G01X16863344Y7408525D01*
G01X16853946Y7414875D01*
G01X16822958Y7445609D01*
G01X16822958Y7402429D01*
G01X16875536Y7372203D02*
G01X16878838Y7366107D01*
G01X16887982Y7356963D01*
G01X16822958Y7356963D01*
G01X16396716Y4361769D02*
G01X16461740Y4361769D01*
G01X16461740Y4361769D02*
G01X16461740Y4398853D01*
G01X16412210Y4475307D02*
G01X16405860Y4472259D01*
G01X16399764Y4466163D01*
G01X16396716Y4459813D01*
G01X16396716Y4447621D01*
G01X16399764Y4441271D01*
G01X16405860Y4435175D01*
G01X16412210Y4432127D01*
G01X16421354Y4429079D01*
G01X16436848Y4429079D01*
G01X16446246Y4432127D01*
G01X16452342Y4435175D01*
G01X16458692Y4441271D01*
G01X16461740Y4447621D01*
G01X16461740Y4459813D01*
G01X16458692Y4466163D01*
G01X16452342Y4472259D01*
G01X16446246Y4475307D01*
G01X16396716Y4505533D02*
G01X16461740Y4505533D01*
G01X16396716Y4505533D02*
G01X16396716Y4527123D01*
G01X16399764Y4536267D01*
G01X16405860Y4542617D01*
G01X16412210Y4545665D01*
G01X16421354Y4548713D01*
G01X16436848Y4548713D01*
G01X16446246Y4545665D01*
G01X16452342Y4542617D01*
G01X16458692Y4536267D01*
G01X16461740Y4527123D01*
G01X16461740Y4505533D01*
G01X16409162Y4578939D02*
G01X16405860Y4585035D01*
G01X16396716Y4594179D01*
G01X16461740Y4594179D01*
G01X16449518Y8777371D02*
G01X16514542Y8777371D01*
G01X16449518Y8777371D02*
G01X16449518Y8798961D01*
G01X16452566Y8808359D01*
G01X16458662Y8814455D01*
G01X16465012Y8817503D01*
G01X16474156Y8820805D01*
G01X16489650Y8820805D01*
G01X16499048Y8817503D01*
G01X16505144Y8814455D01*
G01X16511494Y8808359D01*
G01X16514542Y8798961D01*
G01X16514542Y8777371D01*
G01X16471108Y8851031D02*
G01X16502096Y8851031D01*
G01X16511494Y8854079D01*
G01X16514542Y8860175D01*
G01X16514542Y8869573D01*
G01X16511494Y8875669D01*
G01X16502096Y8885067D01*
G01X16471108Y8885067D02*
G01X16514542Y8885067D01*
G01X16480506Y8949329D02*
G01X16474156Y8946027D01*
G01X16471108Y8936883D01*
G01X16471108Y8927485D01*
G01X16474156Y8918341D01*
G01X16480506Y8915293D01*
G01X16486602Y8918341D01*
G01X16489650Y8924437D01*
G01X16492698Y8939931D01*
G01X16496000Y8946027D01*
G01X16502096Y8949329D01*
G01X16505144Y8949329D01*
G01X16511494Y8946027D01*
G01X16514542Y8936883D01*
G01X16514542Y8927485D01*
G01X16511494Y8918341D01*
G01X16505144Y8915293D01*
G01X16449518Y8988699D02*
G01X16502096Y8988699D01*
G01X16511494Y8991747D01*
G01X16514542Y8998097D01*
G01X16514542Y9004193D01*
G01X16471108Y8979555D02*
G01X16471108Y9001145D01*
G01X16458662Y9077599D02*
G01X16452566Y9071503D01*
G01X16449518Y9062105D01*
G01X16449518Y9049659D01*
G01X16452566Y9040515D01*
G01X16458662Y9034419D01*
G01X16465012Y9034419D01*
G01X16471108Y9037467D01*
G01X16474156Y9040515D01*
G01X16477204Y9046611D01*
G01X16483554Y9065153D01*
G01X16486602Y9071503D01*
G01X16489650Y9074551D01*
G01X16496000Y9077599D01*
G01X16505144Y9077599D01*
G01X16511494Y9071503D01*
G01X16514542Y9062105D01*
G01X16514542Y9049659D01*
G01X16511494Y9040515D01*
G01X16505144Y9034419D01*
G01X16489650Y9107825D02*
G01X16489650Y9144909D01*
G01X16483554Y9144909D01*
G01X16477204Y9141861D01*
G01X16474156Y9138559D01*
G01X16471108Y9132463D01*
G01X16471108Y9123065D01*
G01X16474156Y9116969D01*
G01X16480506Y9110873D01*
G01X16489650Y9107825D01*
G01X16496000Y9107825D01*
G01X16505144Y9110873D01*
G01X16511494Y9116969D01*
G01X16514542Y9123065D01*
G01X16514542Y9132463D01*
G01X16511494Y9138559D01*
G01X16505144Y9144909D01*
G01X16471108Y9175135D02*
G01X16514542Y9175135D01*
G01X16483554Y9175135D02*
G01X16474156Y9184279D01*
G01X16471108Y9190375D01*
G01X16471108Y9199773D01*
G01X16474156Y9205869D01*
G01X16483554Y9209171D01*
G01X16514542Y9209171D01*
G01X16480506Y9273433D02*
G01X16474156Y9270131D01*
G01X16471108Y9260987D01*
G01X16471108Y9251589D01*
G01X16474156Y9242445D01*
G01X16480506Y9239397D01*
G01X16486602Y9242445D01*
G01X16489650Y9248541D01*
G01X16492698Y9264035D01*
G01X16496000Y9270131D01*
G01X16502096Y9273433D01*
G01X16505144Y9273433D01*
G01X16511494Y9270131D01*
G01X16514542Y9260987D01*
G01X16514542Y9251589D01*
G01X16511494Y9242445D01*
G01X16505144Y9239397D01*
G01X16471108Y9318899D02*
G01X16474156Y9312803D01*
G01X16480506Y9306707D01*
G01X16489650Y9303659D01*
G01X16496000Y9303659D01*
G01X16505144Y9306707D01*
G01X16511494Y9312803D01*
G01X16514542Y9318899D01*
G01X16514542Y9328297D01*
G01X16511494Y9334393D01*
G01X16505144Y9340743D01*
G01X16496000Y9343791D01*
G01X16489650Y9343791D01*
G01X16480506Y9340743D01*
G01X16474156Y9334393D01*
G01X16471108Y9328297D01*
G01X16471108Y9318899D01*
G01X16471108Y9374017D02*
G01X16514542Y9374017D01*
G01X16489650Y9374017D02*
G01X16480506Y9377065D01*
G01X16474156Y9383161D01*
G01X16471108Y9389257D01*
G01X16471108Y9398655D01*
G54D10*
G01X17164812Y10836910D02*
G01X17164812Y10881614D01*
G01X17129760Y10554462D02*
G01X17174464Y10554462D01*
G01X17152112Y10532110D02*
G01X17152112Y10576814D01*
G54D11*
G01X16884599Y10451541D02*
G01X16878249Y10448493D01*
G01X16872153Y10442143D01*
G01X16869105Y10436047D01*
G01X16869105Y10423601D01*
G01X16872153Y10417505D01*
G01X16878249Y10411155D01*
G01X16884599Y10408107D01*
G01X16893743Y10405059D01*
G01X16909237Y10405059D01*
G01X16918635Y10408107D01*
G01X16924731Y10411155D01*
G01X16931081Y10417505D01*
G01X16934129Y10423601D01*
G01X16934129Y10436047D01*
G01X16931081Y10442143D01*
G01X16924731Y10448493D01*
G01X16918635Y10451541D01*
G01X16881551Y10481767D02*
G01X16878249Y10487863D01*
G01X16869105Y10497007D01*
G01X16934129Y10497007D01*
G01X1212012Y-3473894D02*
G01X1205662Y-3467798D01*
G01X1196518Y-3464750D01*
G01X1184072Y-3464750D01*
G01X1174674Y-3467798D01*
G01X1168578Y-3473894D01*
G01X1168578Y-3480244D01*
G01X1171626Y-3486340D01*
G01X1174674Y-3489388D01*
G01X1181024Y-3492436D01*
G01X1199566Y-3498786D01*
G01X1205662Y-3501834D01*
G01X1208710Y-3504882D01*
G01X1212012Y-3511232D01*
G01X1212012Y-3520376D01*
G01X1205662Y-3526726D01*
G01X1196518Y-3529774D01*
G01X1184072Y-3529774D01*
G01X1174674Y-3526726D01*
G01X1168578Y-3520376D01*
G01X1242238Y-3486340D02*
G01X1254430Y-3529774D01*
G01X1266876Y-3486340D02*
G01X1254430Y-3529774D01*
G01X1266876Y-3486340D02*
G01X1279322Y-3529774D01*
G01X1291768Y-3486340D02*
G01X1279322Y-3529774D01*
G01X1321994Y-3464750D02*
G01X1325042Y-3467798D01*
G01X1328090Y-3464750D01*
G01X1325042Y-3461702D01*
G01X1321994Y-3464750D01*
G01X1325042Y-3486340D02*
G01X1325042Y-3529774D01*
G01X1367460Y-3464750D02*
G01X1367460Y-3517328D01*
G01X1370508Y-3526726D01*
G01X1376858Y-3529774D01*
G01X1382954Y-3529774D01*
G01X1358316Y-3486340D02*
G01X1379906Y-3486340D01*
G01X1450264Y-3495738D02*
G01X1443914Y-3489388D01*
G01X1437818Y-3486340D01*
G01X1428420Y-3486340D01*
G01X1422324Y-3489388D01*
G01X1416228Y-3495738D01*
G01X1413180Y-3504882D01*
G01X1413180Y-3511232D01*
G01X1416228Y-3520376D01*
G01X1422324Y-3526726D01*
G01X1428420Y-3529774D01*
G01X1437818Y-3529774D01*
G01X1443914Y-3526726D01*
G01X1450264Y-3520376D01*
G01X1480490Y-3464750D02*
G01X1480490Y-3529774D01*
G01X1480490Y-3498786D02*
G01X1489634Y-3489388D01*
G01X1495730Y-3486340D01*
G01X1505128Y-3486340D01*
G01X1511224Y-3489388D01*
G01X1514526Y-3498786D01*
G01X1514526Y-3529774D01*
G01X1547800Y-3480244D02*
G01X1547800Y-3477196D01*
G01X1550848Y-3470846D01*
G01X1553896Y-3467798D01*
G01X1559992Y-3464750D01*
G01X1572438Y-3464750D01*
G01X1578788Y-3467798D01*
G01X1581836Y-3470846D01*
G01X1584884Y-3477196D01*
G01X1584884Y-3483292D01*
G01X1581836Y-3489388D01*
G01X1575486Y-3498786D01*
G01X1544752Y-3529774D01*
G01X1587932Y-3529774D01*
G01X1804416Y-2318431D02*
G01X1869440Y-2318431D01*
G01X1804416Y-2318431D02*
G01X1869440Y-2293539D01*
G01X1804416Y-2268901D02*
G01X1869440Y-2293539D01*
G01X1804416Y-2268901D02*
G01X1869440Y-2268901D01*
G01X1804416Y-2220133D02*
G01X1807464Y-2226483D01*
G01X1813560Y-2232579D01*
G01X1819910Y-2235627D01*
G01X1829054Y-2238675D01*
G01X1844548Y-2238675D01*
G01X1853946Y-2235627D01*
G01X1860042Y-2232579D01*
G01X1866392Y-2226483D01*
G01X1869440Y-2220133D01*
G01X1869440Y-2207941D01*
G01X1866392Y-2201591D01*
G01X1860042Y-2195495D01*
G01X1853946Y-2192447D01*
G01X1844548Y-2189145D01*
G01X1829054Y-2189145D01*
G01X1819910Y-2192447D01*
G01X1813560Y-2195495D01*
G01X1807464Y-2201591D01*
G01X1804416Y-2207941D01*
G01X1804416Y-2220133D01*
G01X1856994Y-2210989D02*
G01X1875536Y-2192447D01*
G01X1816862Y-2158919D02*
G01X1813560Y-2152823D01*
G01X1804416Y-2143679D01*
G01X1869440Y-2143679D01*
G01X1804416Y-2107357D02*
G01X1804416Y-2073321D01*
G01X1829054Y-2091863D01*
G01X1829054Y-2082719D01*
G01X1832102Y-2076369D01*
G01X1835404Y-2073321D01*
G01X1844548Y-2070273D01*
G01X1850898Y-2070273D01*
G01X1860042Y-2073321D01*
G01X1866392Y-2079417D01*
G01X1869440Y-2088815D01*
G01X1869440Y-2098213D01*
G01X1866392Y-2107357D01*
G01X1863090Y-2110405D01*
G01X1856994Y-2113453D01*
G01X1804416Y-2002963D02*
G01X1804416Y-2033951D01*
G01X1832102Y-2036999D01*
G01X1829054Y-2033951D01*
G01X1826006Y-2024807D01*
G01X1826006Y-2015409D01*
G01X1829054Y-2006011D01*
G01X1835404Y-1999915D01*
G01X1844548Y-1996867D01*
G01X1850898Y-1996867D01*
G01X1860042Y-1999915D01*
G01X1866392Y-2006011D01*
G01X1869440Y-2015409D01*
G01X1869440Y-2024807D01*
G01X1866392Y-2033951D01*
G01X1863090Y-2036999D01*
G01X1856994Y-2040047D01*
G01X3400580Y556829D02*
G01X3354098Y556829D01*
G01X3344954Y553781D01*
G01X3338604Y547431D01*
G01X3335556Y538287D01*
G01X3335556Y531937D01*
G01X3338604Y522793D01*
G01X3344954Y516697D01*
G01X3354098Y513395D01*
G01X3400580Y513395D01*
G01X3388134Y483169D02*
G01X3391436Y477073D01*
G01X3400580Y467929D01*
G01X3335556Y467929D01*
G01X2849753Y-6428796D02*
G01X2843657Y-6435146D01*
G01X2840609Y-6444290D01*
G01X2840609Y-6456736D01*
G01X2843657Y-6466134D01*
G01X2849753Y-6472230D01*
G01X2856103Y-6472230D01*
G01X2862199Y-6469182D01*
G01X2865247Y-6466134D01*
G01X2868295Y-6459784D01*
G01X2874645Y-6441242D01*
G01X2877693Y-6435146D01*
G01X2880741Y-6432098D01*
G01X2887091Y-6428796D01*
G01X2896235Y-6428796D01*
G01X2902585Y-6435146D01*
G01X2905633Y-6444290D01*
G01X2905633Y-6456736D01*
G01X2902585Y-6466134D01*
G01X2896235Y-6472230D01*
G01X2871597Y-6361486D02*
G01X2865247Y-6367836D01*
G01X2862199Y-6373932D01*
G01X2862199Y-6383330D01*
G01X2865247Y-6389426D01*
G01X2871597Y-6395522D01*
G01X2880741Y-6398570D01*
G01X2887091Y-6398570D01*
G01X2896235Y-6395522D01*
G01X2902585Y-6389426D01*
G01X2905633Y-6383330D01*
G01X2905633Y-6373932D01*
G01X2902585Y-6367836D01*
G01X2896235Y-6361486D01*
G01X2862199Y-6331260D02*
G01X2905633Y-6331260D01*
G01X2880741Y-6331260D02*
G01X2871597Y-6328212D01*
G01X2865247Y-6322116D01*
G01X2862199Y-6316020D01*
G01X2862199Y-6306622D01*
G01X2880741Y-6276396D02*
G01X2880741Y-6239312D01*
G01X2874645Y-6239312D01*
G01X2868295Y-6242360D01*
G01X2865247Y-6245662D01*
G01X2862199Y-6251758D01*
G01X2862199Y-6261156D01*
G01X2865247Y-6267252D01*
G01X2871597Y-6273348D01*
G01X2880741Y-6276396D01*
G01X2887091Y-6276396D01*
G01X2896235Y-6273348D01*
G01X2902585Y-6267252D01*
G01X2905633Y-6261156D01*
G01X2905633Y-6251758D01*
G01X2902585Y-6245662D01*
G01X2896235Y-6239312D01*
G01X2862199Y-6209086D02*
G01X2905633Y-6196894D01*
G01X2862199Y-6184448D02*
G01X2905633Y-6196894D01*
G01X2862199Y-6184448D02*
G01X2905633Y-6172002D01*
G01X2862199Y-6159556D02*
G01X2905633Y-6172002D01*
G01X2840609Y-6107740D02*
G01X2905633Y-6107740D01*
G01X2840609Y-6129330D02*
G01X2840609Y-6086150D01*
G01X2880741Y-6055924D02*
G01X2880741Y-6018840D01*
G01X2874645Y-6018840D01*
G01X2868295Y-6021888D01*
G01X2865247Y-6025190D01*
G01X2862199Y-6031286D01*
G01X2862199Y-6040684D01*
G01X2865247Y-6046780D01*
G01X2871597Y-6052876D01*
G01X2880741Y-6055924D01*
G01X2887091Y-6055924D01*
G01X2896235Y-6052876D01*
G01X2902585Y-6046780D01*
G01X2905633Y-6040684D01*
G01X2905633Y-6031286D01*
G01X2902585Y-6025190D01*
G01X2896235Y-6018840D01*
G01X2862199Y-5988614D02*
G01X2905633Y-5988614D01*
G01X2880741Y-5988614D02*
G01X2871597Y-5985566D01*
G01X2865247Y-5979470D01*
G01X2862199Y-5973374D01*
G01X2862199Y-5963976D01*
G01X2862199Y-5933750D02*
G01X2905633Y-5933750D01*
G01X2874645Y-5933750D02*
G01X2865247Y-5924606D01*
G01X2862199Y-5918510D01*
G01X2862199Y-5909112D01*
G01X2865247Y-5903016D01*
G01X2874645Y-5899714D01*
G01X2905633Y-5899714D01*
G01X2874645Y-5899714D02*
G01X2865247Y-5890570D01*
G01X2862199Y-5884220D01*
G01X2862199Y-5875076D01*
G01X2865247Y-5868980D01*
G01X2874645Y-5865678D01*
G01X2905633Y-5865678D01*
G01X2840609Y-5835452D02*
G01X2843657Y-5832404D01*
G01X2840609Y-5829356D01*
G01X2837561Y-5832404D01*
G01X2840609Y-5835452D01*
G01X2862199Y-5832404D02*
G01X2905633Y-5832404D01*
G01X2862199Y-5799130D02*
G01X2905633Y-5799130D01*
G01X2874645Y-5799130D02*
G01X2865247Y-5789986D01*
G01X2862199Y-5783890D01*
G01X2862199Y-5774492D01*
G01X2865247Y-5768396D01*
G01X2874645Y-5765094D01*
G01X2905633Y-5765094D01*
G01X2862199Y-5697784D02*
G01X2905633Y-5697784D01*
G01X2871597Y-5697784D02*
G01X2865247Y-5704134D01*
G01X2862199Y-5710230D01*
G01X2862199Y-5719628D01*
G01X2865247Y-5725724D01*
G01X2871597Y-5731820D01*
G01X2880741Y-5734868D01*
G01X2887091Y-5734868D01*
G01X2896235Y-5731820D01*
G01X2902585Y-5725724D01*
G01X2905633Y-5719628D01*
G01X2905633Y-5710230D01*
G01X2902585Y-5704134D01*
G01X2896235Y-5697784D01*
G01X2840609Y-5667558D02*
G01X2905633Y-5667558D01*
G01X4548251Y-5283807D02*
G01X4541901Y-5277711D01*
G01X4532757Y-5274663D01*
G01X4520311Y-5274663D01*
G01X4510913Y-5277711D01*
G01X4504817Y-5283807D01*
G01X4504817Y-5290157D01*
G01X4507865Y-5296253D01*
G01X4510913Y-5299301D01*
G01X4517263Y-5302349D01*
G01X4535805Y-5308699D01*
G01X4541901Y-5311747D01*
G01X4544949Y-5314795D01*
G01X4548251Y-5321145D01*
G01X4548251Y-5330289D01*
G01X4541901Y-5336639D01*
G01X4532757Y-5339687D01*
G01X4520311Y-5339687D01*
G01X4510913Y-5336639D01*
G01X4504817Y-5330289D01*
G01X4578477Y-5296253D02*
G01X4590669Y-5339687D01*
G01X4603115Y-5296253D02*
G01X4590669Y-5339687D01*
G01X4603115Y-5296253D02*
G01X4615561Y-5339687D01*
G01X4628007Y-5296253D02*
G01X4615561Y-5339687D01*
G01X4658233Y-5274663D02*
G01X4661281Y-5277711D01*
G01X4664329Y-5274663D01*
G01X4661281Y-5271615D01*
G01X4658233Y-5274663D01*
G01X4661281Y-5296253D02*
G01X4661281Y-5339687D01*
G01X4703699Y-5274663D02*
G01X4703699Y-5327241D01*
G01X4706747Y-5336639D01*
G01X4713097Y-5339687D01*
G01X4719193Y-5339687D01*
G01X4694555Y-5296253D02*
G01X4716145Y-5296253D01*
G01X4786503Y-5305651D02*
G01X4780153Y-5299301D01*
G01X4774057Y-5296253D01*
G01X4764659Y-5296253D01*
G01X4758563Y-5299301D01*
G01X4752467Y-5305651D01*
G01X4749419Y-5314795D01*
G01X4749419Y-5321145D01*
G01X4752467Y-5330289D01*
G01X4758563Y-5336639D01*
G01X4764659Y-5339687D01*
G01X4774057Y-5339687D01*
G01X4780153Y-5336639D01*
G01X4786503Y-5330289D01*
G01X4816729Y-5274663D02*
G01X4816729Y-5339687D01*
G01X4816729Y-5308699D02*
G01X4825873Y-5299301D01*
G01X4831969Y-5296253D01*
G01X4841367Y-5296253D01*
G01X4847463Y-5299301D01*
G01X4850765Y-5308699D01*
G01X4850765Y-5339687D01*
G01X4880991Y-5287109D02*
G01X4887087Y-5283807D01*
G01X4896231Y-5274663D01*
G01X4896231Y-5339687D01*
G01X6092980Y556829D02*
G01X6046498Y556829D01*
G01X6037354Y553781D01*
G01X6031004Y547431D01*
G01X6027956Y538287D01*
G01X6027956Y531937D01*
G01X6031004Y522793D01*
G01X6037354Y516697D01*
G01X6046498Y513395D01*
G01X6092980Y513395D01*
G01X6077486Y480121D02*
G01X6080534Y480121D01*
G01X6086884Y477073D01*
G01X6089932Y474025D01*
G01X6092980Y467929D01*
G01X6092980Y455483D01*
G01X6089932Y449133D01*
G01X6086884Y446085D01*
G01X6080534Y443037D01*
G01X6074438Y443037D01*
G01X6068342Y446085D01*
G01X6058944Y452435D01*
G01X6027956Y483169D01*
G01X6027956Y439989D01*
G01X6717284Y108435D02*
G01X6652260Y108435D01*
G01X6717284Y108435D02*
G01X6717284Y80495D01*
G01X6714236Y71351D01*
G01X6711188Y68303D01*
G01X6704838Y65001D01*
G01X6698742Y65001D01*
G01X6692646Y68303D01*
G01X6689598Y71351D01*
G01X6686296Y80495D01*
G01X6686296Y108435D01*
G01X6686296Y86845D02*
G01X6652260Y65001D01*
G01X6701790Y31727D02*
G01X6704838Y31727D01*
G01X6711188Y28679D01*
G01X6714236Y25631D01*
G01X6717284Y19535D01*
G01X6717284Y7089D01*
G01X6714236Y739D01*
G01X6711188Y-2309D01*
G01X6704838Y-5357D01*
G01X6698742Y-5357D01*
G01X6692646Y-2309D01*
G01X6683248Y4041D01*
G01X6652260Y34775D01*
G01X6652260Y-8405D01*
G01X7274082Y-1639971D02*
G01X7209058Y-1639971D01*
G01X7274082Y-1639971D02*
G01X7274082Y-1680103D01*
G01X7243094Y-1639971D02*
G01X7243094Y-1664863D01*
G01X7209058Y-1639971D02*
G01X7209058Y-1680103D01*
G01X7274082Y-1710329D02*
G01X7209058Y-1710329D01*
G01X7274082Y-1710329D02*
G01X7209058Y-1753509D01*
G01X7274082Y-1753509D02*
G01X7209058Y-1753509D01*
G01X7264938Y-1826915D02*
G01X7271034Y-1820819D01*
G01X7274082Y-1811421D01*
G01X7274082Y-1798975D01*
G01X7271034Y-1789831D01*
G01X7264938Y-1783735D01*
G01X7258588Y-1783735D01*
G01X7252492Y-1786783D01*
G01X7249444Y-1789831D01*
G01X7246396Y-1795927D01*
G01X7240046Y-1814469D01*
G01X7236998Y-1820819D01*
G01X7233950Y-1823867D01*
G01X7227600Y-1826915D01*
G01X7218456Y-1826915D01*
G01X7212106Y-1820819D01*
G01X7209058Y-1811421D01*
G01X7209058Y-1798975D01*
G01X7212106Y-1789831D01*
G01X7218456Y-1783735D01*
G01X7261636Y-1857141D02*
G01X7264938Y-1863237D01*
G01X7274082Y-1872381D01*
G01X7209058Y-1872381D01*
G01X7264938Y-1939691D02*
G01X7271034Y-1936643D01*
G01X7274082Y-1927245D01*
G01X7274082Y-1921149D01*
G01X7271034Y-1911751D01*
G01X7261636Y-1905655D01*
G01X7246396Y-1902607D01*
G01X7230902Y-1902607D01*
G01X7218456Y-1905655D01*
G01X7212106Y-1911751D01*
G01X7209058Y-1921149D01*
G01X7209058Y-1924197D01*
G01X7212106Y-1933341D01*
G01X7218456Y-1939691D01*
G01X7227600Y-1942739D01*
G01X7230902Y-1942739D01*
G01X7240046Y-1939691D01*
G01X7246396Y-1933341D01*
G01X7249444Y-1924197D01*
G01X7249444Y-1921149D01*
G01X7246396Y-1911751D01*
G01X7240046Y-1905655D01*
G01X7230902Y-1902607D01*
G01X7274082Y-1991507D02*
G01X7271034Y-1982109D01*
G01X7261636Y-1976013D01*
G01X7246396Y-1972965D01*
G01X7236998Y-1972965D01*
G01X7221504Y-1976013D01*
G01X7212106Y-1982109D01*
G01X7209058Y-1991507D01*
G01X7209058Y-1997603D01*
G01X7212106Y-2007001D01*
G01X7221504Y-2013097D01*
G01X7236998Y-2016145D01*
G01X7246396Y-2016145D01*
G01X7261636Y-2013097D01*
G01X7271034Y-2007001D01*
G01X7274082Y-1997603D01*
G01X7274082Y-1991507D01*
G01X7264938Y-2074057D02*
G01X7209058Y-2074057D01*
G01X7236998Y-2046371D02*
G01X7236998Y-2101997D01*
G01X7274082Y-2156861D02*
G01X7209058Y-2132223D01*
G01X7274082Y-2156861D02*
G01X7209058Y-2181753D01*
G01X7230902Y-2141367D02*
G01X7230902Y-2172355D01*
G01X7274082Y-2233569D02*
G01X7209058Y-2233569D01*
G01X7274082Y-2211979D02*
G01X7274082Y-2255159D01*
G01X7274082Y-2285385D02*
G01X7209058Y-2285385D01*
G01X7274082Y-2328565D02*
G01X7209058Y-2328565D01*
G01X7243094Y-2285385D02*
G01X7243094Y-2328565D01*
G01X7258588Y-2361839D02*
G01X7261636Y-2361839D01*
G01X7267986Y-2364887D01*
G01X7271034Y-2367935D01*
G01X7274082Y-2374031D01*
G01X7274082Y-2386477D01*
G01X7271034Y-2392827D01*
G01X7267986Y-2395875D01*
G01X7261636Y-2398923D01*
G01X7255540Y-2398923D01*
G01X7249444Y-2395875D01*
G01X7240046Y-2389525D01*
G01X7209058Y-2358791D01*
G01X7209058Y-2401971D01*
G01X7261636Y-2432197D02*
G01X7264938Y-2438293D01*
G01X7274082Y-2447437D01*
G01X7209058Y-2447437D01*
G01X6782816Y-5442631D02*
G01X6847840Y-5442631D01*
G01X6847840Y-5442631D02*
G01X6847840Y-5405547D01*
G01X6798310Y-5329093D02*
G01X6791960Y-5332141D01*
G01X6785864Y-5338237D01*
G01X6782816Y-5344587D01*
G01X6782816Y-5356779D01*
G01X6785864Y-5363129D01*
G01X6791960Y-5369225D01*
G01X6798310Y-5372273D01*
G01X6807454Y-5375321D01*
G01X6822948Y-5375321D01*
G01X6832346Y-5372273D01*
G01X6838442Y-5369225D01*
G01X6844792Y-5363129D01*
G01X6847840Y-5356779D01*
G01X6847840Y-5344587D01*
G01X6844792Y-5338237D01*
G01X6838442Y-5332141D01*
G01X6832346Y-5329093D01*
G01X6782816Y-5298867D02*
G01X6847840Y-5298867D01*
G01X6782816Y-5298867D02*
G01X6782816Y-5277277D01*
G01X6785864Y-5268133D01*
G01X6791960Y-5261783D01*
G01X6798310Y-5258735D01*
G01X6807454Y-5255687D01*
G01X6822948Y-5255687D01*
G01X6832346Y-5258735D01*
G01X6838442Y-5261783D01*
G01X6844792Y-5268133D01*
G01X6847840Y-5277277D01*
G01X6847840Y-5298867D01*
G01X6795262Y-5225461D02*
G01X6791960Y-5219365D01*
G01X6782816Y-5210221D01*
G01X6847840Y-5210221D01*
G01X6835618Y-1027029D02*
G01X6900642Y-1027029D01*
G01X6835618Y-1027029D02*
G01X6835618Y-1005439D01*
G01X6838666Y-996041D01*
G01X6844762Y-989945D01*
G01X6851112Y-986897D01*
G01X6860256Y-983595D01*
G01X6875750Y-983595D01*
G01X6885148Y-986897D01*
G01X6891244Y-989945D01*
G01X6897594Y-996041D01*
G01X6900642Y-1005439D01*
G01X6900642Y-1027029D01*
G01X6857208Y-953369D02*
G01X6888196Y-953369D01*
G01X6897594Y-950321D01*
G01X6900642Y-944225D01*
G01X6900642Y-934827D01*
G01X6897594Y-928731D01*
G01X6888196Y-919333D01*
G01X6857208Y-919333D02*
G01X6900642Y-919333D01*
G01X6866606Y-855071D02*
G01X6860256Y-858373D01*
G01X6857208Y-867517D01*
G01X6857208Y-876915D01*
G01X6860256Y-886059D01*
G01X6866606Y-889107D01*
G01X6872702Y-886059D01*
G01X6875750Y-879963D01*
G01X6878798Y-864469D01*
G01X6882100Y-858373D01*
G01X6888196Y-855071D01*
G01X6891244Y-855071D01*
G01X6897594Y-858373D01*
G01X6900642Y-867517D01*
G01X6900642Y-876915D01*
G01X6897594Y-886059D01*
G01X6891244Y-889107D01*
G01X6835618Y-815701D02*
G01X6888196Y-815701D01*
G01X6897594Y-812653D01*
G01X6900642Y-806303D01*
G01X6900642Y-800207D01*
G01X6857208Y-824845D02*
G01X6857208Y-803255D01*
G01X6844762Y-726801D02*
G01X6838666Y-732897D01*
G01X6835618Y-742295D01*
G01X6835618Y-754741D01*
G01X6838666Y-763885D01*
G01X6844762Y-769981D01*
G01X6851112Y-769981D01*
G01X6857208Y-766933D01*
G01X6860256Y-763885D01*
G01X6863304Y-757789D01*
G01X6869654Y-739247D01*
G01X6872702Y-732897D01*
G01X6875750Y-729849D01*
G01X6882100Y-726801D01*
G01X6891244Y-726801D01*
G01X6897594Y-732897D01*
G01X6900642Y-742295D01*
G01X6900642Y-754741D01*
G01X6897594Y-763885D01*
G01X6891244Y-769981D01*
G01X6875750Y-696575D02*
G01X6875750Y-659491D01*
G01X6869654Y-659491D01*
G01X6863304Y-662539D01*
G01X6860256Y-665841D01*
G01X6857208Y-671937D01*
G01X6857208Y-681335D01*
G01X6860256Y-687431D01*
G01X6866606Y-693527D01*
G01X6875750Y-696575D01*
G01X6882100Y-696575D01*
G01X6891244Y-693527D01*
G01X6897594Y-687431D01*
G01X6900642Y-681335D01*
G01X6900642Y-671937D01*
G01X6897594Y-665841D01*
G01X6891244Y-659491D01*
G01X6857208Y-629265D02*
G01X6900642Y-629265D01*
G01X6869654Y-629265D02*
G01X6860256Y-620121D01*
G01X6857208Y-614025D01*
G01X6857208Y-604627D01*
G01X6860256Y-598531D01*
G01X6869654Y-595229D01*
G01X6900642Y-595229D01*
G01X6866606Y-530967D02*
G01X6860256Y-534269D01*
G01X6857208Y-543413D01*
G01X6857208Y-552811D01*
G01X6860256Y-561955D01*
G01X6866606Y-565003D01*
G01X6872702Y-561955D01*
G01X6875750Y-555859D01*
G01X6878798Y-540365D01*
G01X6882100Y-534269D01*
G01X6888196Y-530967D01*
G01X6891244Y-530967D01*
G01X6897594Y-534269D01*
G01X6900642Y-543413D01*
G01X6900642Y-552811D01*
G01X6897594Y-561955D01*
G01X6891244Y-565003D01*
G01X6857208Y-485501D02*
G01X6860256Y-491597D01*
G01X6866606Y-497693D01*
G01X6875750Y-500741D01*
G01X6882100Y-500741D01*
G01X6891244Y-497693D01*
G01X6897594Y-491597D01*
G01X6900642Y-485501D01*
G01X6900642Y-476103D01*
G01X6897594Y-470007D01*
G01X6891244Y-463657D01*
G01X6882100Y-460609D01*
G01X6875750Y-460609D01*
G01X6866606Y-463657D01*
G01X6860256Y-470007D01*
G01X6857208Y-476103D01*
G01X6857208Y-485501D01*
G01X6857208Y-430383D02*
G01X6900642Y-430383D01*
G01X6875750Y-430383D02*
G01X6866606Y-427335D01*
G01X6860256Y-421239D01*
G01X6857208Y-415143D01*
G01X6857208Y-405745D01*
G54D10*
G01X7550912Y1032510D02*
G01X7550912Y1077214D01*
G01X7515860Y750062D02*
G01X7560564Y750062D01*
G01X7538212Y727710D02*
G01X7538212Y772414D01*
G54D11*
G01X7270699Y647141D02*
G01X7264349Y644093D01*
G01X7258253Y637743D01*
G01X7255205Y631647D01*
G01X7255205Y619201D01*
G01X7258253Y613105D01*
G01X7264349Y606755D01*
G01X7270699Y603707D01*
G01X7279843Y600659D01*
G01X7295337Y600659D01*
G01X7304735Y603707D01*
G01X7310831Y606755D01*
G01X7317181Y613105D01*
G01X7320229Y619201D01*
G01X7320229Y631647D01*
G01X7317181Y637743D01*
G01X7310831Y644093D01*
G01X7304735Y647141D01*
G01X7267651Y677367D02*
G01X7264349Y683463D01*
G01X7255205Y692607D01*
G01X7320229Y692607D01*
G01X10762412Y-3600894D02*
G01X10756062Y-3594798D01*
G01X10746918Y-3591750D01*
G01X10734472Y-3591750D01*
G01X10725074Y-3594798D01*
G01X10718978Y-3600894D01*
G01X10718978Y-3607244D01*
G01X10722026Y-3613340D01*
G01X10725074Y-3616388D01*
G01X10731424Y-3619436D01*
G01X10749966Y-3625786D01*
G01X10756062Y-3628834D01*
G01X10759110Y-3631882D01*
G01X10762412Y-3638232D01*
G01X10762412Y-3647376D01*
G01X10756062Y-3653726D01*
G01X10746918Y-3656774D01*
G01X10734472Y-3656774D01*
G01X10725074Y-3653726D01*
G01X10718978Y-3647376D01*
G01X10792638Y-3613340D02*
G01X10804830Y-3656774D01*
G01X10817276Y-3613340D02*
G01X10804830Y-3656774D01*
G01X10817276Y-3613340D02*
G01X10829722Y-3656774D01*
G01X10842168Y-3613340D02*
G01X10829722Y-3656774D01*
G01X10872394Y-3591750D02*
G01X10875442Y-3594798D01*
G01X10878490Y-3591750D01*
G01X10875442Y-3588702D01*
G01X10872394Y-3591750D01*
G01X10875442Y-3613340D02*
G01X10875442Y-3656774D01*
G01X10917860Y-3591750D02*
G01X10917860Y-3644328D01*
G01X10920908Y-3653726D01*
G01X10927258Y-3656774D01*
G01X10933354Y-3656774D01*
G01X10908716Y-3613340D02*
G01X10930306Y-3613340D01*
G01X11000664Y-3622738D02*
G01X10994314Y-3616388D01*
G01X10988218Y-3613340D01*
G01X10978820Y-3613340D01*
G01X10972724Y-3616388D01*
G01X10966628Y-3622738D01*
G01X10963580Y-3631882D01*
G01X10963580Y-3638232D01*
G01X10966628Y-3647376D01*
G01X10972724Y-3653726D01*
G01X10978820Y-3656774D01*
G01X10988218Y-3656774D01*
G01X10994314Y-3653726D01*
G01X11000664Y-3647376D01*
G01X11030890Y-3591750D02*
G01X11030890Y-3656774D01*
G01X11030890Y-3625786D02*
G01X11040034Y-3616388D01*
G01X11046130Y-3613340D01*
G01X11055528Y-3613340D01*
G01X11061624Y-3616388D01*
G01X11064926Y-3625786D01*
G01X11064926Y-3656774D01*
G01X11098200Y-3607244D02*
G01X11098200Y-3604196D01*
G01X11101248Y-3597846D01*
G01X11104296Y-3594798D01*
G01X11110392Y-3591750D01*
G01X11122838Y-3591750D01*
G01X11129188Y-3594798D01*
G01X11132236Y-3597846D01*
G01X11135284Y-3604196D01*
G01X11135284Y-3610292D01*
G01X11132236Y-3616388D01*
G01X11125886Y-3625786D01*
G01X11095152Y-3656774D01*
G01X11138332Y-3656774D01*
G01X11354816Y-2445431D02*
G01X11419840Y-2445431D01*
G01X11354816Y-2445431D02*
G01X11419840Y-2420539D01*
G01X11354816Y-2395901D02*
G01X11419840Y-2420539D01*
G01X11354816Y-2395901D02*
G01X11419840Y-2395901D01*
G01X11354816Y-2347133D02*
G01X11357864Y-2353483D01*
G01X11363960Y-2359579D01*
G01X11370310Y-2362627D01*
G01X11379454Y-2365675D01*
G01X11394948Y-2365675D01*
G01X11404346Y-2362627D01*
G01X11410442Y-2359579D01*
G01X11416792Y-2353483D01*
G01X11419840Y-2347133D01*
G01X11419840Y-2334941D01*
G01X11416792Y-2328591D01*
G01X11410442Y-2322495D01*
G01X11404346Y-2319447D01*
G01X11394948Y-2316145D01*
G01X11379454Y-2316145D01*
G01X11370310Y-2319447D01*
G01X11363960Y-2322495D01*
G01X11357864Y-2328591D01*
G01X11354816Y-2334941D01*
G01X11354816Y-2347133D01*
G01X11407394Y-2337989D02*
G01X11425936Y-2319447D01*
G01X11367262Y-2285919D02*
G01X11363960Y-2279823D01*
G01X11354816Y-2270679D01*
G01X11419840Y-2270679D01*
G01X11354816Y-2234357D02*
G01X11354816Y-2200321D01*
G01X11379454Y-2218863D01*
G01X11379454Y-2209719D01*
G01X11382502Y-2203369D01*
G01X11385804Y-2200321D01*
G01X11394948Y-2197273D01*
G01X11401298Y-2197273D01*
G01X11410442Y-2200321D01*
G01X11416792Y-2206417D01*
G01X11419840Y-2215815D01*
G01X11419840Y-2225213D01*
G01X11416792Y-2234357D01*
G01X11413490Y-2237405D01*
G01X11407394Y-2240453D01*
G01X11354816Y-2129963D02*
G01X11354816Y-2160951D01*
G01X11382502Y-2163999D01*
G01X11379454Y-2160951D01*
G01X11376406Y-2151807D01*
G01X11376406Y-2142409D01*
G01X11379454Y-2133011D01*
G01X11385804Y-2126915D01*
G01X11394948Y-2123867D01*
G01X11401298Y-2123867D01*
G01X11410442Y-2126915D01*
G01X11416792Y-2133011D01*
G01X11419840Y-2142409D01*
G01X11419840Y-2151807D01*
G01X11416792Y-2160951D01*
G01X11413490Y-2163999D01*
G01X11407394Y-2167047D01*
G01X12950980Y429829D02*
G01X12904498Y429829D01*
G01X12895354Y426781D01*
G01X12889004Y420431D01*
G01X12885956Y411287D01*
G01X12885956Y404937D01*
G01X12889004Y395793D01*
G01X12895354Y389697D01*
G01X12904498Y386395D01*
G01X12950980Y386395D01*
G01X12938534Y356169D02*
G01X12941836Y350073D01*
G01X12950980Y340929D01*
G01X12885956Y340929D01*
G01X12400153Y-6555796D02*
G01X12394057Y-6562146D01*
G01X12391009Y-6571290D01*
G01X12391009Y-6583736D01*
G01X12394057Y-6593134D01*
G01X12400153Y-6599230D01*
G01X12406503Y-6599230D01*
G01X12412599Y-6596182D01*
G01X12415647Y-6593134D01*
G01X12418695Y-6586784D01*
G01X12425045Y-6568242D01*
G01X12428093Y-6562146D01*
G01X12431141Y-6559098D01*
G01X12437491Y-6555796D01*
G01X12446635Y-6555796D01*
G01X12452985Y-6562146D01*
G01X12456033Y-6571290D01*
G01X12456033Y-6583736D01*
G01X12452985Y-6593134D01*
G01X12446635Y-6599230D01*
G01X12421997Y-6488486D02*
G01X12415647Y-6494836D01*
G01X12412599Y-6500932D01*
G01X12412599Y-6510330D01*
G01X12415647Y-6516426D01*
G01X12421997Y-6522522D01*
G01X12431141Y-6525570D01*
G01X12437491Y-6525570D01*
G01X12446635Y-6522522D01*
G01X12452985Y-6516426D01*
G01X12456033Y-6510330D01*
G01X12456033Y-6500932D01*
G01X12452985Y-6494836D01*
G01X12446635Y-6488486D01*
G01X12412599Y-6458260D02*
G01X12456033Y-6458260D01*
G01X12431141Y-6458260D02*
G01X12421997Y-6455212D01*
G01X12415647Y-6449116D01*
G01X12412599Y-6443020D01*
G01X12412599Y-6433622D01*
G01X12431141Y-6403396D02*
G01X12431141Y-6366312D01*
G01X12425045Y-6366312D01*
G01X12418695Y-6369360D01*
G01X12415647Y-6372662D01*
G01X12412599Y-6378758D01*
G01X12412599Y-6388156D01*
G01X12415647Y-6394252D01*
G01X12421997Y-6400348D01*
G01X12431141Y-6403396D01*
G01X12437491Y-6403396D01*
G01X12446635Y-6400348D01*
G01X12452985Y-6394252D01*
G01X12456033Y-6388156D01*
G01X12456033Y-6378758D01*
G01X12452985Y-6372662D01*
G01X12446635Y-6366312D01*
G01X12412599Y-6336086D02*
G01X12456033Y-6323894D01*
G01X12412599Y-6311448D02*
G01X12456033Y-6323894D01*
G01X12412599Y-6311448D02*
G01X12456033Y-6299002D01*
G01X12412599Y-6286556D02*
G01X12456033Y-6299002D01*
G01X12391009Y-6234740D02*
G01X12456033Y-6234740D01*
G01X12391009Y-6256330D02*
G01X12391009Y-6213150D01*
G01X12431141Y-6182924D02*
G01X12431141Y-6145840D01*
G01X12425045Y-6145840D01*
G01X12418695Y-6148888D01*
G01X12415647Y-6152190D01*
G01X12412599Y-6158286D01*
G01X12412599Y-6167684D01*
G01X12415647Y-6173780D01*
G01X12421997Y-6179876D01*
G01X12431141Y-6182924D01*
G01X12437491Y-6182924D01*
G01X12446635Y-6179876D01*
G01X12452985Y-6173780D01*
G01X12456033Y-6167684D01*
G01X12456033Y-6158286D01*
G01X12452985Y-6152190D01*
G01X12446635Y-6145840D01*
G01X12412599Y-6115614D02*
G01X12456033Y-6115614D01*
G01X12431141Y-6115614D02*
G01X12421997Y-6112566D01*
G01X12415647Y-6106470D01*
G01X12412599Y-6100374D01*
G01X12412599Y-6090976D01*
G01X12412599Y-6060750D02*
G01X12456033Y-6060750D01*
G01X12425045Y-6060750D02*
G01X12415647Y-6051606D01*
G01X12412599Y-6045510D01*
G01X12412599Y-6036112D01*
G01X12415647Y-6030016D01*
G01X12425045Y-6026714D01*
G01X12456033Y-6026714D01*
G01X12425045Y-6026714D02*
G01X12415647Y-6017570D01*
G01X12412599Y-6011220D01*
G01X12412599Y-6002076D01*
G01X12415647Y-5995980D01*
G01X12425045Y-5992678D01*
G01X12456033Y-5992678D01*
G01X12391009Y-5962452D02*
G01X12394057Y-5959404D01*
G01X12391009Y-5956356D01*
G01X12387961Y-5959404D01*
G01X12391009Y-5962452D01*
G01X12412599Y-5959404D02*
G01X12456033Y-5959404D01*
G01X12412599Y-5926130D02*
G01X12456033Y-5926130D01*
G01X12425045Y-5926130D02*
G01X12415647Y-5916986D01*
G01X12412599Y-5910890D01*
G01X12412599Y-5901492D01*
G01X12415647Y-5895396D01*
G01X12425045Y-5892094D01*
G01X12456033Y-5892094D01*
G01X12412599Y-5824784D02*
G01X12456033Y-5824784D01*
G01X12421997Y-5824784D02*
G01X12415647Y-5831134D01*
G01X12412599Y-5837230D01*
G01X12412599Y-5846628D01*
G01X12415647Y-5852724D01*
G01X12421997Y-5858820D01*
G01X12431141Y-5861868D01*
G01X12437491Y-5861868D01*
G01X12446635Y-5858820D01*
G01X12452985Y-5852724D01*
G01X12456033Y-5846628D01*
G01X12456033Y-5837230D01*
G01X12452985Y-5831134D01*
G01X12446635Y-5824784D01*
G01X12391009Y-5794558D02*
G01X12456033Y-5794558D01*
G01X14098651Y-5410807D02*
G01X14092301Y-5404711D01*
G01X14083157Y-5401663D01*
G01X14070711Y-5401663D01*
G01X14061313Y-5404711D01*
G01X14055217Y-5410807D01*
G01X14055217Y-5417157D01*
G01X14058265Y-5423253D01*
G01X14061313Y-5426301D01*
G01X14067663Y-5429349D01*
G01X14086205Y-5435699D01*
G01X14092301Y-5438747D01*
G01X14095349Y-5441795D01*
G01X14098651Y-5448145D01*
G01X14098651Y-5457289D01*
G01X14092301Y-5463639D01*
G01X14083157Y-5466687D01*
G01X14070711Y-5466687D01*
G01X14061313Y-5463639D01*
G01X14055217Y-5457289D01*
G01X14128877Y-5423253D02*
G01X14141069Y-5466687D01*
G01X14153515Y-5423253D02*
G01X14141069Y-5466687D01*
G01X14153515Y-5423253D02*
G01X14165961Y-5466687D01*
G01X14178407Y-5423253D02*
G01X14165961Y-5466687D01*
G01X14208633Y-5401663D02*
G01X14211681Y-5404711D01*
G01X14214729Y-5401663D01*
G01X14211681Y-5398615D01*
G01X14208633Y-5401663D01*
G01X14211681Y-5423253D02*
G01X14211681Y-5466687D01*
G01X14254099Y-5401663D02*
G01X14254099Y-5454241D01*
G01X14257147Y-5463639D01*
G01X14263497Y-5466687D01*
G01X14269593Y-5466687D01*
G01X14244955Y-5423253D02*
G01X14266545Y-5423253D01*
G01X14336903Y-5432651D02*
G01X14330553Y-5426301D01*
G01X14324457Y-5423253D01*
G01X14315059Y-5423253D01*
G01X14308963Y-5426301D01*
G01X14302867Y-5432651D01*
G01X14299819Y-5441795D01*
G01X14299819Y-5448145D01*
G01X14302867Y-5457289D01*
G01X14308963Y-5463639D01*
G01X14315059Y-5466687D01*
G01X14324457Y-5466687D01*
G01X14330553Y-5463639D01*
G01X14336903Y-5457289D01*
G01X14367129Y-5401663D02*
G01X14367129Y-5466687D01*
G01X14367129Y-5435699D02*
G01X14376273Y-5426301D01*
G01X14382369Y-5423253D01*
G01X14391767Y-5423253D01*
G01X14397863Y-5426301D01*
G01X14401165Y-5435699D01*
G01X14401165Y-5466687D01*
G01X14431391Y-5414109D02*
G01X14437487Y-5410807D01*
G01X14446631Y-5401663D01*
G01X14446631Y-5466687D01*
G01X15643380Y429829D02*
G01X15596898Y429829D01*
G01X15587754Y426781D01*
G01X15581404Y420431D01*
G01X15578356Y411287D01*
G01X15578356Y404937D01*
G01X15581404Y395793D01*
G01X15587754Y389697D01*
G01X15596898Y386395D01*
G01X15643380Y386395D01*
G01X15627886Y353121D02*
G01X15630934Y353121D01*
G01X15637284Y350073D01*
G01X15640332Y347025D01*
G01X15643380Y340929D01*
G01X15643380Y328483D01*
G01X15640332Y322133D01*
G01X15637284Y319085D01*
G01X15630934Y316037D01*
G01X15624838Y316037D01*
G01X15618742Y319085D01*
G01X15609344Y325435D01*
G01X15578356Y356169D01*
G01X15578356Y312989D01*
G01X16267684Y-18565D02*
G01X16202660Y-18565D01*
G01X16267684Y-18565D02*
G01X16267684Y-46505D01*
G01X16264636Y-55649D01*
G01X16261588Y-58697D01*
G01X16255238Y-61999D01*
G01X16249142Y-61999D01*
G01X16243046Y-58697D01*
G01X16239998Y-55649D01*
G01X16236696Y-46505D01*
G01X16236696Y-18565D01*
G01X16236696Y-40155D02*
G01X16202660Y-61999D01*
G01X16252190Y-95273D02*
G01X16255238Y-95273D01*
G01X16261588Y-98321D01*
G01X16264636Y-101369D01*
G01X16267684Y-107465D01*
G01X16267684Y-119911D01*
G01X16264636Y-126261D01*
G01X16261588Y-129309D01*
G01X16255238Y-132357D01*
G01X16249142Y-132357D01*
G01X16243046Y-129309D01*
G01X16233648Y-122959D01*
G01X16202660Y-92225D01*
G01X16202660Y-135405D01*
G01X16824482Y-1766971D02*
G01X16759458Y-1766971D01*
G01X16824482Y-1766971D02*
G01X16824482Y-1807103D01*
G01X16793494Y-1766971D02*
G01X16793494Y-1791863D01*
G01X16759458Y-1766971D02*
G01X16759458Y-1807103D01*
G01X16824482Y-1837329D02*
G01X16759458Y-1837329D01*
G01X16824482Y-1837329D02*
G01X16759458Y-1880509D01*
G01X16824482Y-1880509D02*
G01X16759458Y-1880509D01*
G01X16815338Y-1953915D02*
G01X16821434Y-1947819D01*
G01X16824482Y-1938421D01*
G01X16824482Y-1925975D01*
G01X16821434Y-1916831D01*
G01X16815338Y-1910735D01*
G01X16808988Y-1910735D01*
G01X16802892Y-1913783D01*
G01X16799844Y-1916831D01*
G01X16796796Y-1922927D01*
G01X16790446Y-1941469D01*
G01X16787398Y-1947819D01*
G01X16784350Y-1950867D01*
G01X16778000Y-1953915D01*
G01X16768856Y-1953915D01*
G01X16762506Y-1947819D01*
G01X16759458Y-1938421D01*
G01X16759458Y-1925975D01*
G01X16762506Y-1916831D01*
G01X16768856Y-1910735D01*
G01X16812036Y-1984141D02*
G01X16815338Y-1990237D01*
G01X16824482Y-1999381D01*
G01X16759458Y-1999381D01*
G01X16815338Y-2066691D02*
G01X16821434Y-2063643D01*
G01X16824482Y-2054245D01*
G01X16824482Y-2048149D01*
G01X16821434Y-2038751D01*
G01X16812036Y-2032655D01*
G01X16796796Y-2029607D01*
G01X16781302Y-2029607D01*
G01X16768856Y-2032655D01*
G01X16762506Y-2038751D01*
G01X16759458Y-2048149D01*
G01X16759458Y-2051197D01*
G01X16762506Y-2060341D01*
G01X16768856Y-2066691D01*
G01X16778000Y-2069739D01*
G01X16781302Y-2069739D01*
G01X16790446Y-2066691D01*
G01X16796796Y-2060341D01*
G01X16799844Y-2051197D01*
G01X16799844Y-2048149D01*
G01X16796796Y-2038751D01*
G01X16790446Y-2032655D01*
G01X16781302Y-2029607D01*
G01X16824482Y-2118507D02*
G01X16821434Y-2109109D01*
G01X16812036Y-2103013D01*
G01X16796796Y-2099965D01*
G01X16787398Y-2099965D01*
G01X16771904Y-2103013D01*
G01X16762506Y-2109109D01*
G01X16759458Y-2118507D01*
G01X16759458Y-2124603D01*
G01X16762506Y-2134001D01*
G01X16771904Y-2140097D01*
G01X16787398Y-2143145D01*
G01X16796796Y-2143145D01*
G01X16812036Y-2140097D01*
G01X16821434Y-2134001D01*
G01X16824482Y-2124603D01*
G01X16824482Y-2118507D01*
G01X16815338Y-2201057D02*
G01X16759458Y-2201057D01*
G01X16787398Y-2173371D02*
G01X16787398Y-2228997D01*
G01X16824482Y-2283861D02*
G01X16759458Y-2259223D01*
G01X16824482Y-2283861D02*
G01X16759458Y-2308753D01*
G01X16781302Y-2268367D02*
G01X16781302Y-2299355D01*
G01X16824482Y-2360569D02*
G01X16759458Y-2360569D01*
G01X16824482Y-2338979D02*
G01X16824482Y-2382159D01*
G01X16824482Y-2412385D02*
G01X16759458Y-2412385D01*
G01X16824482Y-2455565D02*
G01X16759458Y-2455565D01*
G01X16793494Y-2412385D02*
G01X16793494Y-2455565D01*
G01X16808988Y-2488839D02*
G01X16812036Y-2488839D01*
G01X16818386Y-2491887D01*
G01X16821434Y-2494935D01*
G01X16824482Y-2501031D01*
G01X16824482Y-2513477D01*
G01X16821434Y-2519827D01*
G01X16818386Y-2522875D01*
G01X16812036Y-2525923D01*
G01X16805940Y-2525923D01*
G01X16799844Y-2522875D01*
G01X16790446Y-2516525D01*
G01X16759458Y-2485791D01*
G01X16759458Y-2528971D01*
G01X16812036Y-2559197D02*
G01X16815338Y-2565293D01*
G01X16824482Y-2574437D01*
G01X16759458Y-2574437D01*
G01X16333216Y-5569631D02*
G01X16398240Y-5569631D01*
G01X16398240Y-5569631D02*
G01X16398240Y-5532547D01*
G01X16348710Y-5456093D02*
G01X16342360Y-5459141D01*
G01X16336264Y-5465237D01*
G01X16333216Y-5471587D01*
G01X16333216Y-5483779D01*
G01X16336264Y-5490129D01*
G01X16342360Y-5496225D01*
G01X16348710Y-5499273D01*
G01X16357854Y-5502321D01*
G01X16373348Y-5502321D01*
G01X16382746Y-5499273D01*
G01X16388842Y-5496225D01*
G01X16395192Y-5490129D01*
G01X16398240Y-5483779D01*
G01X16398240Y-5471587D01*
G01X16395192Y-5465237D01*
G01X16388842Y-5459141D01*
G01X16382746Y-5456093D01*
G01X16333216Y-5425867D02*
G01X16398240Y-5425867D01*
G01X16333216Y-5425867D02*
G01X16333216Y-5404277D01*
G01X16336264Y-5395133D01*
G01X16342360Y-5388783D01*
G01X16348710Y-5385735D01*
G01X16357854Y-5382687D01*
G01X16373348Y-5382687D01*
G01X16382746Y-5385735D01*
G01X16388842Y-5388783D01*
G01X16395192Y-5395133D01*
G01X16398240Y-5404277D01*
G01X16398240Y-5425867D01*
G01X16345662Y-5352461D02*
G01X16342360Y-5346365D01*
G01X16333216Y-5337221D01*
G01X16398240Y-5337221D01*
G01X16386018Y-1154029D02*
G01X16451042Y-1154029D01*
G01X16386018Y-1154029D02*
G01X16386018Y-1132439D01*
G01X16389066Y-1123041D01*
G01X16395162Y-1116945D01*
G01X16401512Y-1113897D01*
G01X16410656Y-1110595D01*
G01X16426150Y-1110595D01*
G01X16435548Y-1113897D01*
G01X16441644Y-1116945D01*
G01X16447994Y-1123041D01*
G01X16451042Y-1132439D01*
G01X16451042Y-1154029D01*
G01X16407608Y-1080369D02*
G01X16438596Y-1080369D01*
G01X16447994Y-1077321D01*
G01X16451042Y-1071225D01*
G01X16451042Y-1061827D01*
G01X16447994Y-1055731D01*
G01X16438596Y-1046333D01*
G01X16407608Y-1046333D02*
G01X16451042Y-1046333D01*
G01X16417006Y-982071D02*
G01X16410656Y-985373D01*
G01X16407608Y-994517D01*
G01X16407608Y-1003915D01*
G01X16410656Y-1013059D01*
G01X16417006Y-1016107D01*
G01X16423102Y-1013059D01*
G01X16426150Y-1006963D01*
G01X16429198Y-991469D01*
G01X16432500Y-985373D01*
G01X16438596Y-982071D01*
G01X16441644Y-982071D01*
G01X16447994Y-985373D01*
G01X16451042Y-994517D01*
G01X16451042Y-1003915D01*
G01X16447994Y-1013059D01*
G01X16441644Y-1016107D01*
G01X16386018Y-942701D02*
G01X16438596Y-942701D01*
G01X16447994Y-939653D01*
G01X16451042Y-933303D01*
G01X16451042Y-927207D01*
G01X16407608Y-951845D02*
G01X16407608Y-930255D01*
G01X16395162Y-853801D02*
G01X16389066Y-859897D01*
G01X16386018Y-869295D01*
G01X16386018Y-881741D01*
G01X16389066Y-890885D01*
G01X16395162Y-896981D01*
G01X16401512Y-896981D01*
G01X16407608Y-893933D01*
G01X16410656Y-890885D01*
G01X16413704Y-884789D01*
G01X16420054Y-866247D01*
G01X16423102Y-859897D01*
G01X16426150Y-856849D01*
G01X16432500Y-853801D01*
G01X16441644Y-853801D01*
G01X16447994Y-859897D01*
G01X16451042Y-869295D01*
G01X16451042Y-881741D01*
G01X16447994Y-890885D01*
G01X16441644Y-896981D01*
G01X16426150Y-823575D02*
G01X16426150Y-786491D01*
G01X16420054Y-786491D01*
G01X16413704Y-789539D01*
G01X16410656Y-792841D01*
G01X16407608Y-798937D01*
G01X16407608Y-808335D01*
G01X16410656Y-814431D01*
G01X16417006Y-820527D01*
G01X16426150Y-823575D01*
G01X16432500Y-823575D01*
G01X16441644Y-820527D01*
G01X16447994Y-814431D01*
G01X16451042Y-808335D01*
G01X16451042Y-798937D01*
G01X16447994Y-792841D01*
G01X16441644Y-786491D01*
G01X16407608Y-756265D02*
G01X16451042Y-756265D01*
G01X16420054Y-756265D02*
G01X16410656Y-747121D01*
G01X16407608Y-741025D01*
G01X16407608Y-731627D01*
G01X16410656Y-725531D01*
G01X16420054Y-722229D01*
G01X16451042Y-722229D01*
G01X16417006Y-657967D02*
G01X16410656Y-661269D01*
G01X16407608Y-670413D01*
G01X16407608Y-679811D01*
G01X16410656Y-688955D01*
G01X16417006Y-692003D01*
G01X16423102Y-688955D01*
G01X16426150Y-682859D01*
G01X16429198Y-667365D01*
G01X16432500Y-661269D01*
G01X16438596Y-657967D01*
G01X16441644Y-657967D01*
G01X16447994Y-661269D01*
G01X16451042Y-670413D01*
G01X16451042Y-679811D01*
G01X16447994Y-688955D01*
G01X16441644Y-692003D01*
G01X16407608Y-612501D02*
G01X16410656Y-618597D01*
G01X16417006Y-624693D01*
G01X16426150Y-627741D01*
G01X16432500Y-627741D01*
G01X16441644Y-624693D01*
G01X16447994Y-618597D01*
G01X16451042Y-612501D01*
G01X16451042Y-603103D01*
G01X16447994Y-597007D01*
G01X16441644Y-590657D01*
G01X16432500Y-587609D01*
G01X16426150Y-587609D01*
G01X16417006Y-590657D01*
G01X16410656Y-597007D01*
G01X16407608Y-603103D01*
G01X16407608Y-612501D01*
G01X16407608Y-557383D02*
G01X16451042Y-557383D01*
G01X16426150Y-557383D02*
G01X16417006Y-554335D01*
G01X16410656Y-548239D01*
G01X16407608Y-542143D01*
G01X16407608Y-532745D01*
G54D10*
G01X17101312Y905510D02*
G01X17101312Y950214D01*
G01X17066260Y623062D02*
G01X17110964Y623062D01*
G01X17088612Y600710D02*
G01X17088612Y645414D01*
G54D11*
G01X16821099Y520141D02*
G01X16814749Y517093D01*
G01X16808653Y510743D01*
G01X16805605Y504647D01*
G01X16805605Y492201D01*
G01X16808653Y486105D01*
G01X16814749Y479755D01*
G01X16821099Y476707D01*
G01X16830243Y473659D01*
G01X16845737Y473659D01*
G01X16855135Y476707D01*
G01X16861231Y479755D01*
G01X16867581Y486105D01*
G01X16870629Y492201D01*
G01X16870629Y504647D01*
G01X16867581Y510743D01*
G01X16861231Y517093D01*
G01X16855135Y520141D01*
G01X16818051Y550367D02*
G01X16814749Y556463D01*
G01X16805605Y565607D01*
G01X16870629Y565607D01*
G04 Text End*

G04 PolygonModel Start*
G54D12*
G01X7531100Y11059211D02*
G02X7531100Y10429189I0J-315011D01*
G01X7531100Y10429189D02*
G02X7531100Y11059211I0J315011D01*
G36*
G01X7759700Y10972800D02*
G01X7314115Y10972711D01*
G01X7314207Y10972800D01*
G02X7536954Y11065066I222747J-222745D01*
G01X7536955Y11065066D01*
G02X7759700Y10972800I-2J-315011D01*
G37*
G01X6796502Y9080500D02*
G01X7046498Y9080500D01*
G01X7046498Y8801501D02*
G01X7046498Y10375499D01*
G01X6796502Y8801501D02*
G01X7046498Y8801501D01*
G01X6796502Y10375499D02*
G01X6796502Y8801501D01*
G01X7046498Y10375499D02*
G01X6796502Y10375499D01*
G01X6995698Y7899400D02*
G01X6745699Y7899400D01*
G01X6745699Y8178399D02*
G01X6745699Y6096401D01*
G01X6995698Y8178399D02*
G01X6745699Y8178399D01*
G01X6995698Y6096401D02*
G01X6995698Y8178399D01*
G01X6745699Y6096401D02*
G01X6995698Y6096401D01*
G01X6743700Y5443901D02*
G01X6997700Y5443901D01*
G01X6743700Y4385899D02*
G01X6743700Y5443901D01*
G01X6743700Y4663252D02*
G01X6997700Y4663252D01*
G01X6997700Y4385899D02*
G01X6997700Y5443901D01*
G01X6743700Y4385899D02*
G01X6997700Y4385899D01*
G01X1765300Y8568101D02*
G01X2019300Y8568101D01*
G01X1765300Y7510099D02*
G01X1765300Y8568101D01*
G01X1765300Y7787452D02*
G01X2019300Y7787452D01*
G01X2019300Y7510099D02*
G01X2019300Y8568101D01*
G01X1765300Y7510099D02*
G01X2019300Y7510099D01*
G01X6324600Y9664705D02*
G01X6324600Y9740905D01*
G01X6324600Y9004305D02*
G01X6324600Y8928105D01*
G01X2801747Y4432300D02*
G01X2801747Y3418916D01*
G01X3740501Y3356300D02*
G01X3715497Y3416300D01*
G01X3640501Y3356300D02*
G01X3740501Y3356300D01*
G01X3665507Y3416300D02*
G01X3640501Y3356300D01*
G01X2915498Y3416300D02*
G01X2890500Y3356300D01*
G01X2890500Y3356300D02*
G01X2990502Y3356300D01*
G01X2990502Y3356300D02*
G01X2965511Y3416300D01*
G01X3817747Y4432300D02*
G01X3817747Y3418916D01*
G01X3817747Y4432300D02*
G01X2801747Y4432300D01*
G01X3817493Y3416300D02*
G01X2801493Y3416300D01*
G36*
G01X2815501Y3624301D02*
G01X2815501Y3724300D01*
G01X3015501Y3724300D01*
G01X3015501Y3774300D01*
G01X3115501Y3674301D01*
G01X3015501Y3574301D01*
G01X3015501Y3624301D01*
G01X2815501Y3624301D01*
G37*
G36*
G01X2815501Y4132301D02*
G01X2815501Y4232300D01*
G01X3015501Y4232300D01*
G01X3015501Y4282300D01*
G01X3115501Y4182301D01*
G01X3015501Y4082301D01*
G01X3015501Y4132301D01*
G01X2815501Y4132301D01*
G37*
G01X5521399Y3598901D02*
G01X4711510Y3598901D01*
G01X4711510Y3598901D02*
G01X4711510Y3635383D01*
G01X5521516Y4198874D02*
G01X4711510Y4198874D01*
G01X4711510Y4198874D02*
G01X4711510Y3618992D01*
G01X5521399Y4198899D02*
G01X5521399Y3598901D01*
G01X4351401Y4428899D02*
G01X5861398Y4428899D01*
G01X5861398Y4428899D02*
G01X5861398Y3378901D01*
G01X5861398Y3378901D02*
G01X4351401Y3378901D01*
G01X4351401Y3378901D02*
G01X4351401Y4428899D01*
G36*
G01X5291399Y3928900D02*
G01X5471399Y3928900D01*
G01X5471399Y3868900D01*
G01X5291399Y3868900D01*
G01X5291399Y3928900D01*
G37*
G01X1728216Y5439067D02*
G01X1728216Y5539067D01*
G01X1728216Y5539067D02*
G01X1878228Y5689054D01*
G01X1728216Y5739067D02*
G01X1728216Y5839066D01*
G01X1678229Y5839066D02*
G01X1778229Y5839066D01*
G01X1678229Y5439067D02*
G01X1778229Y5439067D01*
G01X1128217Y6014532D02*
G01X1128217Y6239066D01*
G01X1128217Y6239066D02*
G01X2328215Y6239066D01*
G01X2328215Y6239066D02*
G01X2328215Y6010768D01*
G01X2328215Y5761485D02*
G01X2328215Y5514409D01*
G01X2328215Y5265748D02*
G01X2328215Y5039068D01*
G01X2328215Y5039068D02*
G01X1128217Y5039068D01*
G01X1128217Y5039068D02*
G01X1128217Y5265659D01*
G01X1128217Y5764754D02*
G01X1128217Y5510086D01*
G01X3122196Y10375199D02*
G01X3122196Y4763201D01*
G01X3122196Y10118395D02*
G01X2872199Y10118395D01*
G01X2872199Y10375199D02*
G01X3122196Y10375199D01*
G01X2872196Y10375199D02*
G01X2872196Y4763201D01*
G01X2872199Y4763201D02*
G01X3122196Y4763201D01*
G01X5814596Y10375199D02*
G01X5814596Y4763201D01*
G01X5814596Y10118395D02*
G01X5564599Y10118395D01*
G01X5564599Y10375199D02*
G01X5814596Y10375199D01*
G01X5564596Y10375199D02*
G01X5564596Y4763201D01*
G01X5564599Y4763201D02*
G01X5814596Y4763201D01*
G01X11500866Y5420017D02*
G01X11500866Y5520017D01*
G01X11500866Y5520017D02*
G01X11650878Y5670004D01*
G01X11500866Y5720017D02*
G01X11500866Y5820016D01*
G01X11450879Y5820016D02*
G01X11550879Y5820016D01*
G01X11450879Y5420017D02*
G01X11550879Y5420017D01*
G01X10900867Y5995482D02*
G01X10900867Y6220016D01*
G01X10900867Y6220016D02*
G01X12100865Y6220016D01*
G01X12100865Y6220016D02*
G01X12100865Y5991718D01*
G01X12100865Y5742435D02*
G01X12100865Y5495359D01*
G01X12100865Y5246698D02*
G01X12100865Y5020018D01*
G01X12100865Y5020018D02*
G01X10900867Y5020018D01*
G01X10900867Y5020018D02*
G01X10900867Y5246609D01*
G01X10900867Y5745704D02*
G01X10900867Y5491036D01*
G01X11537950Y8549051D02*
G01X11791950Y8549051D01*
G01X11537950Y7491049D02*
G01X11537950Y8549051D01*
G01X11537950Y7768402D02*
G01X11791950Y7768402D01*
G01X11791950Y7491049D02*
G01X11791950Y8549051D01*
G01X11537950Y7491049D02*
G01X11791950Y7491049D01*
G01X12894846Y10356149D02*
G01X12894846Y4744151D01*
G01X12894846Y10099345D02*
G01X12644849Y10099345D01*
G01X12644849Y10356149D02*
G01X12894846Y10356149D01*
G01X12644846Y10356149D02*
G01X12644846Y4744151D01*
G01X12644849Y4744151D02*
G01X12894846Y4744151D01*
G01X12574397Y4413250D02*
G01X12574397Y3399866D01*
G01X13513151Y3337250D02*
G01X13488147Y3397250D01*
G01X13413151Y3337250D02*
G01X13513151Y3337250D01*
G01X13438157Y3397250D02*
G01X13413151Y3337250D01*
G01X12688148Y3397250D02*
G01X12663150Y3337250D01*
G01X12663150Y3337250D02*
G01X12763152Y3337250D01*
G01X12763152Y3337250D02*
G01X12738161Y3397250D01*
G01X13590397Y4413250D02*
G01X13590397Y3399866D01*
G01X13590397Y4413250D02*
G01X12574397Y4413250D01*
G01X13590143Y3397250D02*
G01X12574143Y3397250D01*
G36*
G01X12588151Y3605251D02*
G01X12588151Y3705250D01*
G01X12788151Y3705250D01*
G01X12788151Y3755250D01*
G01X12888151Y3655251D01*
G01X12788151Y3555251D01*
G01X12788151Y3605251D01*
G01X12588151Y3605251D01*
G37*
G36*
G01X12588151Y4113251D02*
G01X12588151Y4213250D01*
G01X12788151Y4213250D01*
G01X12788151Y4263250D01*
G01X12888151Y4163251D01*
G01X12788151Y4063251D01*
G01X12788151Y4113251D01*
G01X12588151Y4113251D01*
G37*
G01X15294049Y3579851D02*
G01X14484160Y3579851D01*
G01X14484160Y3579851D02*
G01X14484160Y3616333D01*
G01X15294166Y4179824D02*
G01X14484160Y4179824D01*
G01X14484160Y4179824D02*
G01X14484160Y3599942D01*
G01X15294049Y4179849D02*
G01X15294049Y3579851D01*
G01X14124051Y4409849D02*
G01X15634048Y4409849D01*
G01X15634048Y4409849D02*
G01X15634048Y3359851D01*
G01X15634048Y3359851D02*
G01X14124051Y3359851D01*
G01X14124051Y3359851D02*
G01X14124051Y4409849D01*
G36*
G01X15064049Y3909850D02*
G01X15244049Y3909850D01*
G01X15244049Y3849850D01*
G01X15064049Y3849850D01*
G01X15064049Y3909850D01*
G37*
G01X15587246Y10356149D02*
G01X15587246Y4744151D01*
G01X15587246Y10099345D02*
G01X15337249Y10099345D01*
G01X15337249Y10356149D02*
G01X15587246Y10356149D01*
G01X15337246Y10356149D02*
G01X15337246Y4744151D01*
G01X15337249Y4744151D02*
G01X15587246Y4744151D01*
G01X16097250Y9645655D02*
G01X16097250Y9721855D01*
G01X16097250Y8985255D02*
G01X16097250Y8909055D01*
G01X16768348Y7880350D02*
G01X16518349Y7880350D01*
G01X16518349Y8159349D02*
G01X16518349Y6077351D01*
G01X16768348Y8159349D02*
G01X16518349Y8159349D01*
G01X16768348Y6077351D02*
G01X16768348Y8159349D01*
G01X16518349Y6077351D02*
G01X16768348Y6077351D01*
G01X16516350Y5424851D02*
G01X16770350Y5424851D01*
G01X16516350Y4366849D02*
G01X16516350Y5424851D01*
G01X16516350Y4644202D02*
G01X16770350Y4644202D01*
G01X16770350Y4366849D02*
G01X16770350Y5424851D01*
G01X16516350Y4366849D02*
G01X16770350Y4366849D01*
G01X16569152Y9061450D02*
G01X16819148Y9061450D01*
G01X16819148Y8782451D02*
G01X16819148Y10356449D01*
G01X16569152Y8782451D02*
G01X16819148Y8782451D01*
G01X16569152Y10356449D02*
G01X16569152Y8782451D01*
G01X16819148Y10356449D02*
G01X16569152Y10356449D01*
G01X17303750Y11040161D02*
G02X17303750Y10410139I0J-315011D01*
G01X17303750Y10410139D02*
G02X17303750Y11040161I0J315011D01*
G36*
G01X17532350Y10953750D02*
G01X17086765Y10953661D01*
G01X17086857Y10953750D01*
G02X17309604Y11046016I222747J-222745D01*
G01X17309605Y11046016D01*
G02X17532350Y10953750I-2J-315011D01*
G37*
G01X1886966Y-4384383D02*
G01X1886966Y-4284383D01*
G01X1886966Y-4284383D02*
G01X2036978Y-4134396D01*
G01X1886966Y-4084383D02*
G01X1886966Y-3984384D01*
G01X1836979Y-3984384D02*
G01X1936979Y-3984384D01*
G01X1836979Y-4384383D02*
G01X1936979Y-4384383D01*
G01X1286967Y-3808918D02*
G01X1286967Y-3584384D01*
G01X1286967Y-3584384D02*
G01X2486965Y-3584384D01*
G01X2486965Y-3584384D02*
G01X2486965Y-3812682D01*
G01X2486965Y-4061965D02*
G01X2486965Y-4309041D01*
G01X2486965Y-4557702D02*
G01X2486965Y-4784382D01*
G01X2486965Y-4784382D02*
G01X1286967Y-4784382D01*
G01X1286967Y-4784382D02*
G01X1286967Y-4557791D01*
G01X1286967Y-4058696D02*
G01X1286967Y-4313364D01*
G01X1924050Y-1255349D02*
G01X2178050Y-1255349D01*
G01X1924050Y-2313351D02*
G01X1924050Y-1255349D01*
G01X1924050Y-2035998D02*
G01X2178050Y-2035998D01*
G01X2178050Y-2313351D02*
G01X2178050Y-1255349D01*
G01X1924050Y-2313351D02*
G01X2178050Y-2313351D01*
G01X3280946Y551749D02*
G01X3280946Y-5060249D01*
G01X3280946Y294945D02*
G01X3030949Y294945D01*
G01X3030949Y551749D02*
G01X3280946Y551749D01*
G01X3030946Y551749D02*
G01X3030946Y-5060249D01*
G01X3030949Y-5060249D02*
G01X3280946Y-5060249D01*
G01X2960497Y-5391150D02*
G01X2960497Y-6404534D01*
G01X3899251Y-6467150D02*
G01X3874247Y-6407150D01*
G01X3799251Y-6467150D02*
G01X3899251Y-6467150D01*
G01X3824257Y-6407150D02*
G01X3799251Y-6467150D01*
G01X3074248Y-6407150D02*
G01X3049250Y-6467150D01*
G01X3049250Y-6467150D02*
G01X3149252Y-6467150D01*
G01X3149252Y-6467150D02*
G01X3124261Y-6407150D01*
G01X3976497Y-5391150D02*
G01X3976497Y-6404534D01*
G01X3976497Y-5391150D02*
G01X2960497Y-5391150D01*
G01X3976243Y-6407150D02*
G01X2960243Y-6407150D01*
G36*
G01X2974251Y-6199149D02*
G01X2974251Y-6099150D01*
G01X3174251Y-6099150D01*
G01X3174251Y-6049150D01*
G01X3274251Y-6149149D01*
G01X3174251Y-6249149D01*
G01X3174251Y-6199149D01*
G01X2974251Y-6199149D01*
G37*
G36*
G01X2974251Y-5691149D02*
G01X2974251Y-5591150D01*
G01X3174251Y-5591150D01*
G01X3174251Y-5541150D01*
G01X3274251Y-5641149D01*
G01X3174251Y-5741149D01*
G01X3174251Y-5691149D01*
G01X2974251Y-5691149D01*
G37*
G01X5680149Y-6224549D02*
G01X4870260Y-6224549D01*
G01X4870260Y-6224549D02*
G01X4870260Y-6188067D01*
G01X5680266Y-5624576D02*
G01X4870260Y-5624576D01*
G01X4870260Y-5624576D02*
G01X4870260Y-6204458D01*
G01X5680149Y-5624551D02*
G01X5680149Y-6224549D01*
G01X4510151Y-5394551D02*
G01X6020148Y-5394551D01*
G01X6020148Y-5394551D02*
G01X6020148Y-6444549D01*
G01X6020148Y-6444549D02*
G01X4510151Y-6444549D01*
G01X4510151Y-6444549D02*
G01X4510151Y-5394551D01*
G36*
G01X5450149Y-5894550D02*
G01X5630149Y-5894550D01*
G01X5630149Y-5954550D01*
G01X5450149Y-5954550D01*
G01X5450149Y-5894550D01*
G37*
G01X5973346Y551749D02*
G01X5973346Y-5060249D01*
G01X5973346Y294945D02*
G01X5723349Y294945D01*
G01X5723349Y551749D02*
G01X5973346Y551749D01*
G01X5723346Y551749D02*
G01X5723346Y-5060249D01*
G01X5723349Y-5060249D02*
G01X5973346Y-5060249D01*
G01X6483350Y-158745D02*
G01X6483350Y-82545D01*
G01X6483350Y-819145D02*
G01X6483350Y-895345D01*
G01X7154448Y-1924050D02*
G01X6904449Y-1924050D01*
G01X6904449Y-1645051D02*
G01X6904449Y-3727049D01*
G01X7154448Y-1645051D02*
G01X6904449Y-1645051D01*
G01X7154448Y-3727049D02*
G01X7154448Y-1645051D01*
G01X6904449Y-3727049D02*
G01X7154448Y-3727049D01*
G01X6902450Y-4379549D02*
G01X7156450Y-4379549D01*
G01X6902450Y-5437551D02*
G01X6902450Y-4379549D01*
G01X6902450Y-5160198D02*
G01X7156450Y-5160198D01*
G01X7156450Y-5437551D02*
G01X7156450Y-4379549D01*
G01X6902450Y-5437551D02*
G01X7156450Y-5437551D01*
G01X6955252Y-742950D02*
G01X7205248Y-742950D01*
G01X7205248Y-1021949D02*
G01X7205248Y552049D01*
G01X6955252Y-1021949D02*
G01X7205248Y-1021949D01*
G01X6955252Y552049D02*
G01X6955252Y-1021949D01*
G01X7205248Y552049D02*
G01X6955252Y552049D01*
G01X7689850Y1235761D02*
G02X7689850Y605739I0J-315011D01*
G01X7689850Y605739D02*
G02X7689850Y1235761I0J315011D01*
G36*
G01X7918450Y1149350D02*
G01X7472865Y1149261D01*
G01X7472957Y1149350D01*
G02X7695704Y1241616I222747J-222745D01*
G01X7695705Y1241616D01*
G02X7918450Y1149350I-2J-315011D01*
G37*
G01X11437366Y-4511383D02*
G01X11437366Y-4411383D01*
G01X11437366Y-4411383D02*
G01X11587378Y-4261396D01*
G01X11437366Y-4211383D02*
G01X11437366Y-4111384D01*
G01X11387379Y-4111384D02*
G01X11487379Y-4111384D01*
G01X11387379Y-4511383D02*
G01X11487379Y-4511383D01*
G01X10837367Y-3935918D02*
G01X10837367Y-3711384D01*
G01X10837367Y-3711384D02*
G01X12037365Y-3711384D01*
G01X12037365Y-3711384D02*
G01X12037365Y-3939682D01*
G01X12037365Y-4188965D02*
G01X12037365Y-4436041D01*
G01X12037365Y-4684702D02*
G01X12037365Y-4911382D01*
G01X12037365Y-4911382D02*
G01X10837367Y-4911382D01*
G01X10837367Y-4911382D02*
G01X10837367Y-4684791D01*
G01X10837367Y-4185696D02*
G01X10837367Y-4440364D01*
G01X11474450Y-1382349D02*
G01X11728450Y-1382349D01*
G01X11474450Y-2440351D02*
G01X11474450Y-1382349D01*
G01X11474450Y-2162998D02*
G01X11728450Y-2162998D01*
G01X11728450Y-2440351D02*
G01X11728450Y-1382349D01*
G01X11474450Y-2440351D02*
G01X11728450Y-2440351D01*
G01X12831346Y424749D02*
G01X12831346Y-5187249D01*
G01X12831346Y167945D02*
G01X12581349Y167945D01*
G01X12581349Y424749D02*
G01X12831346Y424749D01*
G01X12581346Y424749D02*
G01X12581346Y-5187249D01*
G01X12581349Y-5187249D02*
G01X12831346Y-5187249D01*
G01X12510897Y-5518150D02*
G01X12510897Y-6531534D01*
G01X13449651Y-6594150D02*
G01X13424647Y-6534150D01*
G01X13349651Y-6594150D02*
G01X13449651Y-6594150D01*
G01X13374657Y-6534150D02*
G01X13349651Y-6594150D01*
G01X12624648Y-6534150D02*
G01X12599650Y-6594150D01*
G01X12599650Y-6594150D02*
G01X12699652Y-6594150D01*
G01X12699652Y-6594150D02*
G01X12674661Y-6534150D01*
G01X13526897Y-5518150D02*
G01X13526897Y-6531534D01*
G01X13526897Y-5518150D02*
G01X12510897Y-5518150D01*
G01X13526643Y-6534150D02*
G01X12510643Y-6534150D01*
G36*
G01X12524651Y-6326149D02*
G01X12524651Y-6226150D01*
G01X12724651Y-6226150D01*
G01X12724651Y-6176150D01*
G01X12824651Y-6276149D01*
G01X12724651Y-6376149D01*
G01X12724651Y-6326149D01*
G01X12524651Y-6326149D01*
G37*
G36*
G01X12524651Y-5818149D02*
G01X12524651Y-5718150D01*
G01X12724651Y-5718150D01*
G01X12724651Y-5668150D01*
G01X12824651Y-5768149D01*
G01X12724651Y-5868149D01*
G01X12724651Y-5818149D01*
G01X12524651Y-5818149D01*
G37*
G01X15230549Y-6351549D02*
G01X14420660Y-6351549D01*
G01X14420660Y-6351549D02*
G01X14420660Y-6315067D01*
G01X15230666Y-5751576D02*
G01X14420660Y-5751576D01*
G01X14420660Y-5751576D02*
G01X14420660Y-6331458D01*
G01X15230549Y-5751551D02*
G01X15230549Y-6351549D01*
G01X14060551Y-5521551D02*
G01X15570548Y-5521551D01*
G01X15570548Y-5521551D02*
G01X15570548Y-6571549D01*
G01X15570548Y-6571549D02*
G01X14060551Y-6571549D01*
G01X14060551Y-6571549D02*
G01X14060551Y-5521551D01*
G36*
G01X15000549Y-6021550D02*
G01X15180549Y-6021550D01*
G01X15180549Y-6081550D01*
G01X15000549Y-6081550D01*
G01X15000549Y-6021550D01*
G37*
G01X15523746Y424749D02*
G01X15523746Y-5187249D01*
G01X15523746Y167945D02*
G01X15273749Y167945D01*
G01X15273749Y424749D02*
G01X15523746Y424749D01*
G01X15273746Y424749D02*
G01X15273746Y-5187249D01*
G01X15273749Y-5187249D02*
G01X15523746Y-5187249D01*
G01X16033750Y-285745D02*
G01X16033750Y-209545D01*
G01X16033750Y-946145D02*
G01X16033750Y-1022345D01*
G01X16704848Y-2051050D02*
G01X16454849Y-2051050D01*
G01X16454849Y-1772051D02*
G01X16454849Y-3854049D01*
G01X16704848Y-1772051D02*
G01X16454849Y-1772051D01*
G01X16704848Y-3854049D02*
G01X16704848Y-1772051D01*
G01X16454849Y-3854049D02*
G01X16704848Y-3854049D01*
G01X16452850Y-4506549D02*
G01X16706850Y-4506549D01*
G01X16452850Y-5564551D02*
G01X16452850Y-4506549D01*
G01X16452850Y-5287198D02*
G01X16706850Y-5287198D01*
G01X16706850Y-5564551D02*
G01X16706850Y-4506549D01*
G01X16452850Y-5564551D02*
G01X16706850Y-5564551D01*
G01X16505652Y-869950D02*
G01X16755648Y-869950D01*
G01X16755648Y-1148949D02*
G01X16755648Y425049D01*
G01X16505652Y-1148949D02*
G01X16755648Y-1148949D01*
G01X16505652Y425049D02*
G01X16505652Y-1148949D01*
G01X16755648Y425049D02*
G01X16505652Y425049D01*
G01X17240250Y1108761D02*
G02X17240250Y478739I0J-315011D01*
G01X17240250Y478739D02*
G02X17240250Y1108761I0J315011D01*
G36*
G01X17468850Y1022350D02*
G01X17023265Y1022261D01*
G01X17023357Y1022350D01*
G02X17246104Y1114616I222747J-222745D01*
G01X17246105Y1114616D01*
G02X17468850Y1022350I-2J-315011D01*
G37*

G04 Rect Start*
G01X6210300Y9652013D02*
G01X6438900Y9652013D01*
G01X6438900Y9004313D01*
G01X6210300Y9004313D01*
G01X6210300Y9652013D01*
G01X15982950Y9632963D02*
G01X16211550Y9632963D01*
G01X16211550Y8985263D01*
G01X15982950Y8985263D01*
G01X15982950Y9632963D01*
G01X6369050Y-171437D02*
G01X6597650Y-171437D01*
G01X6597650Y-819137D01*
G01X6369050Y-819137D01*
G01X6369050Y-171437D01*
G01X15919450Y-298437D02*
G01X16148050Y-298437D01*
G01X16148050Y-946137D01*
G01X15919450Y-946137D01*
G01X15919450Y-298437D01*
G04 Rect End*

G04 Circle Start*
G01X7216089Y10744200D02*
G03X7846111Y10744200I315011J0D01*
G03X7216089Y10744200I-315011J0D01*
G01X4745952Y3898900D02*
G03X4916843Y3898900I85446J0D01*
G03X4745952Y3898900I-85446J0D01*
G01X14518602Y3879850D02*
G03X14689493Y3879850I85446J0D01*
G03X14518602Y3879850I-85446J0D01*
G01X16988739Y10725150D02*
G03X17618761Y10725150I315011J0D01*
G03X16988739Y10725150I-315011J0D01*
G01X4904702Y-5924550D02*
G03X5075593Y-5924550I85446J0D01*
G03X4904702Y-5924550I-85446J0D01*
G01X7374839Y920750D02*
G03X8004861Y920750I315011J0D01*
G03X7374839Y920750I-315011J0D01*
G01X14455102Y-6051550D02*
G03X14625993Y-6051550I85446J0D01*
G03X14455102Y-6051550I-85446J0D01*
G01X16925239Y793750D02*
G03X17555261Y793750I315011J0D01*
G03X16925239Y793750I-315011J0D01*
G04 Circle End*

M02*

