G04 Layer: DrillDrawingLayer*
G04 EasyEDA Pro v2.2.46.11, 2026-03-21 17:54:08*
G04 Gerber Generator version 0.3*
G04 Scale: 100 percent, Rotated: No, Reflected: No*
G04 Dimensions in millimeters*
G04 Leading zeros omitted, absolute positions, 4 integers and 5 decimals*
G04 Generated by one-click*
%FSLAX45Y45*%
%MOMM*%
%AMIconRect*4,1,4,0.28,-0.28,-0.28,-0.28,-0.28,0.28,0.28,0.28,0.28,-0.28,0*4,0,4,0.233333,-0.233333,0.233333,0.233333,-0.233333,0.233333,-0.233333,-0.233333,0.233333,-0.233333,0*%
%AMIconTriangle*4,1,3,-0.339593,0.240473,0.339593,0.240473,0,-0.37884,-0.339593,0.240473,0*4,0,3,-0.265673,0.19404,0,-0.27342,0.266233,0.19404,-0.265673,0.19404,0*%
%ADD10IconRect*%
%ADD11C,0.616X0.522667*%
%ADD12IconTriangle*%
G75*


G04 Drill Drawing Start*
G54D10*
G01X1102208Y5388801D03*
G01X1102208Y5888800D03*
G01X1260958Y-4434649D03*
G01X1260958Y-3934650D03*
G01X10811358Y-4561649D03*
G01X10811358Y-4061650D03*
G01X10874858Y5369751D03*
G01X10874858Y5869750D03*
G54D11*
G01X1727200Y5188801D03*
G01X1727200Y6088799D03*
G01X1885950Y-4634649D03*
G01X1885950Y-3734651D03*
G01X11436350Y-4761649D03*
G01X11436350Y-3861651D03*
G01X11499850Y5169751D03*
G01X11499850Y6069749D03*
G54D12*
G01X1892300Y7658100D03*
G01X1892300Y7912100D03*
G01X1892300Y8166100D03*
G01X1892300Y8420100D03*
G01X2051050Y-2165350D03*
G01X2051050Y-1911350D03*
G01X2051050Y-1657350D03*
G01X2051050Y-1403350D03*
G01X2352192Y5388801D03*
G01X2352192Y5888800D03*
G01X2510942Y-4434649D03*
G01X2510942Y-3934650D03*
G01X2997200Y4902200D03*
G01X2997200Y5156200D03*
G01X2997200Y5410200D03*
G01X2997200Y5664200D03*
G01X2997200Y5918200D03*
G01X2997200Y6172200D03*
G01X2997200Y6426200D03*
G01X2997200Y6680200D03*
G01X2997200Y6934200D03*
G01X2997200Y7188200D03*
G01X2997200Y7442200D03*
G01X2997200Y7696200D03*
G01X2997200Y7950200D03*
G01X2997200Y8204200D03*
G01X2997200Y8458200D03*
G01X2997200Y8712200D03*
G01X2997200Y8966200D03*
G01X2997200Y9220200D03*
G01X2997200Y9474200D03*
G01X2997200Y9728200D03*
G01X2997200Y9982200D03*
G01X2997200Y10236200D03*
G01X3155950Y-4921250D03*
G01X3155950Y-4667250D03*
G01X3155950Y-4413250D03*
G01X3155950Y-4159250D03*
G01X3155950Y-3905250D03*
G01X3155950Y-3651250D03*
G01X3155950Y-3397250D03*
G01X3155950Y-3143250D03*
G01X3155950Y-2889250D03*
G01X3155950Y-2635250D03*
G01X3155950Y-2381250D03*
G01X3155950Y-2127250D03*
G01X3155950Y-1873250D03*
G01X3155950Y-1619250D03*
G01X3155950Y-1365250D03*
G01X3155950Y-1111250D03*
G01X3155950Y-857250D03*
G01X3155950Y-603250D03*
G01X3155950Y-349250D03*
G01X3155950Y-95250D03*
G01X3155950Y158750D03*
G01X3155950Y412750D03*
G01X3365500Y3670300D03*
G01X3365500Y4178300D03*
G01X3524250Y-5645150D03*
G01X3524250Y-6153150D03*
G01X4601401Y3898900D03*
G01X4760151Y-5924550D03*
G01X5101400Y3898900D03*
G01X5260150Y-5924550D03*
G01X5689600Y4902200D03*
G01X5689600Y5156200D03*
G01X5689600Y5410200D03*
G01X5689600Y5664200D03*
G01X5689600Y5918200D03*
G01X5689600Y6172200D03*
G01X5689600Y6426200D03*
G01X5689600Y6680200D03*
G01X5689600Y6934200D03*
G01X5689600Y7188200D03*
G01X5689600Y7442200D03*
G01X5689600Y7696200D03*
G01X5689600Y7950200D03*
G01X5689600Y8204200D03*
G01X5689600Y8458200D03*
G01X5689600Y8712200D03*
G01X5689600Y8966200D03*
G01X5689600Y9220200D03*
G01X5689600Y9474200D03*
G01X5689600Y9728200D03*
G01X5689600Y9982200D03*
G01X5689600Y10236200D03*
G01X5848350Y-4921250D03*
G01X5848350Y-4667250D03*
G01X5848350Y-4413250D03*
G01X5848350Y-4159250D03*
G01X5848350Y-3905250D03*
G01X5848350Y-3651250D03*
G01X5848350Y-3397250D03*
G01X5848350Y-3143250D03*
G01X5848350Y-2889250D03*
G01X5848350Y-2635250D03*
G01X5848350Y-2381250D03*
G01X5848350Y-2127250D03*
G01X5848350Y-1873250D03*
G01X5848350Y-1619250D03*
G01X5848350Y-1365250D03*
G01X5848350Y-1111250D03*
G01X5848350Y-857250D03*
G01X5848350Y-603250D03*
G01X5848350Y-349250D03*
G01X5848350Y-95250D03*
G01X5848350Y158750D03*
G01X5848350Y412750D03*
G01X6324600Y8809495D03*
G01X6324600Y9859505D03*
G01X6483350Y-1013955D03*
G01X6483350Y36055D03*
G01X6870700Y4533900D03*
G01X6870700Y4787900D03*
G01X6870700Y5041900D03*
G01X6870700Y5295900D03*
G01X6870700Y6248400D03*
G01X6870700Y6502400D03*
G01X6870700Y6756400D03*
G01X6870700Y7010400D03*
G01X6870700Y7264400D03*
G01X6870700Y7518400D03*
G01X6870700Y7772400D03*
G01X6870700Y8026400D03*
G01X6921500Y8953500D03*
G01X6921500Y9207500D03*
G01X6921500Y9461500D03*
G01X6921500Y9715500D03*
G01X6921500Y9969500D03*
G01X6921500Y10223500D03*
G01X7029450Y-5289550D03*
G01X7029450Y-5035550D03*
G01X7029450Y-4781550D03*
G01X7029450Y-4527550D03*
G01X7029450Y-3575050D03*
G01X7029450Y-3321050D03*
G01X7029450Y-3067050D03*
G01X7029450Y-2813050D03*
G01X7029450Y-2559050D03*
G01X7029450Y-2305050D03*
G01X7029450Y-2051050D03*
G01X7029450Y-1797050D03*
G01X7080250Y-869950D03*
G01X7080250Y-615950D03*
G01X7080250Y-361950D03*
G01X7080250Y-107950D03*
G01X7080250Y146050D03*
G01X7080250Y400050D03*
G01X7366000Y7442200D03*
G01X7366000Y7759700D03*
G01X7524750Y-2381250D03*
G01X7524750Y-2063750D03*
G01X7531100Y10619207D03*
G01X7531100Y10869193D03*
G01X7689850Y795757D03*
G01X7689850Y1045743D03*
G01X7950200Y8483600D03*
G01X8001000Y7454900D03*
G01X8108950Y-1339850D03*
G01X8159750Y-2368550D03*
G01X11601450Y-2292350D03*
G01X11601450Y-2038350D03*
G01X11601450Y-1784350D03*
G01X11601450Y-1530350D03*
G01X11664950Y7639050D03*
G01X11664950Y7893050D03*
G01X11664950Y8147050D03*
G01X11664950Y8401050D03*
G01X12061342Y-4561649D03*
G01X12061342Y-4061650D03*
G01X12124842Y5369751D03*
G01X12124842Y5869750D03*
G01X12706350Y-5048250D03*
G01X12706350Y-4794250D03*
G01X12706350Y-4540250D03*
G01X12706350Y-4286250D03*
G01X12706350Y-4032250D03*
G01X12706350Y-3778250D03*
G01X12706350Y-3524250D03*
G01X12706350Y-3270250D03*
G01X12706350Y-3016250D03*
G01X12706350Y-2762250D03*
G01X12706350Y-2508250D03*
G01X12706350Y-2254250D03*
G01X12706350Y-2000250D03*
G01X12706350Y-1746250D03*
G01X12706350Y-1492250D03*
G01X12706350Y-1238250D03*
G01X12706350Y-984250D03*
G01X12706350Y-730250D03*
G01X12706350Y-476250D03*
G01X12706350Y-222250D03*
G01X12706350Y31750D03*
G01X12706350Y285750D03*
G01X12769850Y4883150D03*
G01X12769850Y5137150D03*
G01X12769850Y5391150D03*
G01X12769850Y5645150D03*
G01X12769850Y5899150D03*
G01X12769850Y6153150D03*
G01X12769850Y6407150D03*
G01X12769850Y6661150D03*
G01X12769850Y6915150D03*
G01X12769850Y7169150D03*
G01X12769850Y7423150D03*
G01X12769850Y7677150D03*
G01X12769850Y7931150D03*
G01X12769850Y8185150D03*
G01X12769850Y8439150D03*
G01X12769850Y8693150D03*
G01X12769850Y8947150D03*
G01X12769850Y9201150D03*
G01X12769850Y9455150D03*
G01X12769850Y9709150D03*
G01X12769850Y9963150D03*
G01X12769850Y10217150D03*
G01X13074650Y-6280150D03*
G01X13074650Y-5772150D03*
G01X13138150Y3651250D03*
G01X13138150Y4159250D03*
G01X14310551Y-6051550D03*
G01X14374051Y3879850D03*
G01X14810550Y-6051550D03*
G01X14874050Y3879850D03*
G01X15398750Y-5048250D03*
G01X15398750Y-4794250D03*
G01X15398750Y-4540250D03*
G01X15398750Y-4286250D03*
G01X15398750Y-4032250D03*
G01X15398750Y-3778250D03*
G01X15398750Y-3524250D03*
G01X15398750Y-3270250D03*
G01X15398750Y-3016250D03*
G01X15398750Y-2762250D03*
G01X15398750Y-2508250D03*
G01X15398750Y-2254250D03*
G01X15398750Y-2000250D03*
G01X15398750Y-1746250D03*
G01X15398750Y-1492250D03*
G01X15398750Y-1238250D03*
G01X15398750Y-984250D03*
G01X15398750Y-730250D03*
G01X15398750Y-476250D03*
G01X15398750Y-222250D03*
G01X15398750Y31750D03*
G01X15398750Y285750D03*
G01X15462250Y4883150D03*
G01X15462250Y5137150D03*
G01X15462250Y5391150D03*
G01X15462250Y5645150D03*
G01X15462250Y5899150D03*
G01X15462250Y6153150D03*
G01X15462250Y6407150D03*
G01X15462250Y6661150D03*
G01X15462250Y6915150D03*
G01X15462250Y7169150D03*
G01X15462250Y7423150D03*
G01X15462250Y7677150D03*
G01X15462250Y7931150D03*
G01X15462250Y8185150D03*
G01X15462250Y8439150D03*
G01X15462250Y8693150D03*
G01X15462250Y8947150D03*
G01X15462250Y9201150D03*
G01X15462250Y9455150D03*
G01X15462250Y9709150D03*
G01X15462250Y9963150D03*
G01X15462250Y10217150D03*
G01X16033750Y-1140955D03*
G01X16033750Y-90945D03*
G01X16097250Y8790445D03*
G01X16097250Y9840455D03*
G01X16579850Y-5416550D03*
G01X16579850Y-5162550D03*
G01X16579850Y-4908550D03*
G01X16579850Y-4654550D03*
G01X16579850Y-3702050D03*
G01X16579850Y-3448050D03*
G01X16579850Y-3194050D03*
G01X16579850Y-2940050D03*
G01X16579850Y-2686050D03*
G01X16579850Y-2432050D03*
G01X16579850Y-2178050D03*
G01X16579850Y-1924050D03*
G01X16630650Y-996950D03*
G01X16630650Y-742950D03*
G01X16630650Y-488950D03*
G01X16630650Y-234950D03*
G01X16630650Y19050D03*
G01X16630650Y273050D03*
G01X16643350Y4514850D03*
G01X16643350Y4768850D03*
G01X16643350Y5022850D03*
G01X16643350Y5276850D03*
G01X16643350Y6229350D03*
G01X16643350Y6483350D03*
G01X16643350Y6737350D03*
G01X16643350Y6991350D03*
G01X16643350Y7245350D03*
G01X16643350Y7499350D03*
G01X16643350Y7753350D03*
G01X16643350Y8007350D03*
G01X16694150Y8934450D03*
G01X16694150Y9188450D03*
G01X16694150Y9442450D03*
G01X16694150Y9696450D03*
G01X16694150Y9950450D03*
G01X16694150Y10204450D03*
G01X17075150Y-2508250D03*
G01X17075150Y-2190750D03*
G01X17138650Y7423150D03*
G01X17138650Y7740650D03*
G01X17240250Y668757D03*
G01X17240250Y918743D03*
G01X17303750Y10600157D03*
G01X17303750Y10850143D03*
G01X17659350Y-1466850D03*
G01X17710150Y-2495550D03*
G01X17722850Y8464550D03*
G01X17773650Y7435850D03*
G04 Drill Drawing End*

M02*

